<svg xmlns="http://www.w3.org/2000/svg" width="11.301" height="19.242" viewBox="0 0 11.301 19.242">
  <g id="caret-symbol_1_" data-name="caret-symbol (1)" transform="translate(-63.362 19.243) rotate(-90)">
    <g id="_x34_85._Up" transform="translate(0 63.361)">
      <g id="Group_4" data-name="Group 4" transform="translate(0 0)">
        <path id="Path_3" data-name="Path 3" d="M18.954,72.287,10.317,63.65a.984.984,0,0,0-1.391,0L.288,72.287a.984.984,0,0,0,0,1.391l.7.7a.984.984,0,0,0,1.392,0l7.246-7.246,7.246,7.246a.983.983,0,0,0,1.391,0l.7-.7A.983.983,0,0,0,18.954,72.287Z" transform="translate(0 -63.362)" fill="#0d2828"/>
      </g>
    </g>
  </g>
</svg>
