<svg xmlns="http://www.w3.org/2000/svg" width="146.502" height="172.356" viewBox="0 0 146.502 172.356">
  <g id="Group_1091" data-name="Group 1091" transform="translate(21844 -2606)">
    <g id="medal" transform="translate(-21844 2606)">
      <g id="Group_1085" data-name="Group 1085" transform="translate(3.232 100.9)">
        <path id="Path_1272" data-name="Path 1272" d="M331.68,348.567l-25.494.359-12.927,22.263-16.877-28.726-11.849-20.108,38.78-22.622L315.162,320.2Z" transform="translate(-191.641 -299.733)" fill="#d3ad5f"/>
        <path id="Path_1273" data-name="Path 1273" d="M115.147,322.355,103.3,342.463,86.421,371.189,73.494,348.926,48,348.567,64.518,320.2l11.849-20.467Z" transform="translate(-48 -299.733)" fill="#d3ad5f"/>
      </g>
      <g id="Group_1086" data-name="Group 1086" transform="translate(20.108 100.9)">
        <path id="Path_1274" data-name="Path 1274" d="M109.623,299.733l38.78,22.622-11.849,20.108c-1.436-1.077-2.514-2.154-3.591-2.514h-1.077a31.88,31.88,0,0,0-5.386.718,27.34,27.34,0,0,1-7.541,1.077,11.485,11.485,0,0,1-6.823-1.8c-4.668-2.872-6.463-7.9-7.9-12.209a26.047,26.047,0,0,0-2.514-6.1,8.416,8.416,0,0,0-3.591-1.8Z" transform="translate(-98.132 -299.733)" fill="#231f20" opacity="0.1"/>
        <path id="Path_1275" data-name="Path 1275" d="M315.87,320.908c-1.436.718-2.872,1.077-3.591,1.8-1.077,1.077-1.8,3.591-2.514,6.1-1.436,4.668-3.232,9.7-7.9,12.209a12.773,12.773,0,0,1-6.823,1.8,27.339,27.339,0,0,1-7.541-1.077,37.323,37.323,0,0,0-5.386-.718H281.04a9.369,9.369,0,0,0-3.591,2.514L265.6,323.422,304.38,300.8Z" transform="translate(-209.225 -300.441)" fill="#231f20" opacity="0.1"/>
      </g>
      <path id="Path_1276" data-name="Path 1276" d="M184.9,73.251c0,6.1-8.977,11.131-10.413,16.876s3.591,14.722.718,19.749c-2.872,5.386-13.286,5.027-17.595,9.336s-3.95,14.363-9.336,17.595c-5.027,2.872-14-2.154-19.749-.718S117.755,146.5,111.651,146.5s-11.131-8.977-16.876-10.413-14.722,3.591-19.749.718c-5.386-2.872-5.027-13.286-9.336-17.595s-14.363-3.95-17.595-9.336c-2.872-5.027,2.154-14,.718-19.749S38.4,79.355,38.4,73.251,47.377,62.12,48.813,56.375,45.223,41.653,48.1,36.626C50.967,31.239,61.381,31.6,65.69,27.29S69.639,12.927,75.026,9.7c5.027-2.872,14,2.154,19.749.718S105.547,0,111.651,0s11.131,8.977,16.876,10.413S143.25,6.823,148.277,9.7c5.386,2.872,5.027,13.286,9.336,17.595s14.363,3.95,17.595,9.336c2.872,5.027-2.154,14-.718,19.749S184.9,67.147,184.9,73.251Z" transform="translate(-38.4)" fill="#f8cb6f"/>
      <path id="Path_1278" data-name="Path 1278" d="M154.814,167.762a51.347,51.347,0,1,1,51.348-51.347A51.337,51.337,0,0,1,154.814,167.762Zm0-91.923a40.575,40.575,0,1,0,40.575,40.575A40.764,40.764,0,0,0,154.814,75.839Z" transform="translate(-81.563 -43.163)" fill="#d3ad5f"/>
      <path id="Path_1279" data-name="Path 1279" d="M154.814,272.485c-27.649,0-50.27-22.262-51.348-49.552v1.8a51.348,51.348,0,1,0,102.7,0v-1.8A51.452,51.452,0,0,1,154.814,272.485Z" transform="translate(-81.563 -147.887)" fill="#231f20" opacity="0.1"/>
    </g>
    <g id="star_1_" data-name="star (1)" transform="translate(-21797.334 2651.899)">
      <path id="Path_1286" data-name="Path 1286" d="M101.728,34.1,84.418,32.5,77.542,16.53a1.387,1.387,0,0,0-2.548,0L68.119,32.5,50.809,34.1a1.387,1.387,0,0,0-.787,2.423L63.082,48,59.259,64.957a1.387,1.387,0,0,0,2.061,1.5L76.268,57.58l14.948,8.876a1.387,1.387,0,0,0,2.061-1.5L89.455,48l13.06-11.473A1.387,1.387,0,0,0,101.728,34.1Z" transform="translate(-49.548 -15.691)" fill="#fff"/>
    </g>
  </g>
</svg>
