<svg xmlns="http://www.w3.org/2000/svg" width="258.094" height="258.094" viewBox="0 0 258.094 258.094">
  <g id="Group_1111" data-name="Group 1111" transform="translate(-1146.699 -3596.87)">
    <rect id="Rectangle_1065" data-name="Rectangle 1065" width="258.094" height="258.094" rx="29" transform="translate(1146.699 3596.87)" fill="#dbdbdb"/>
    <rect id="Rectangle_1066" data-name="Rectangle 1066" width="173.627" height="173.627" rx="7" transform="translate(1188.932 3639.104)" fill="#0a1516" opacity="0.5"/>
    <g id="twitter_dark.4955a539" transform="translate(1165.469 3615.641)">
      <g id="Group_610" data-name="Group 610">
        <g id="post-twitter">
          <path id="Path_1072" data-name="Path 1072" d="M198.5,0H22.055A22.1,22.1,0,0,0,0,22.055V198.5a22.1,22.1,0,0,0,22.055,22.055H198.5A22.1,22.1,0,0,0,220.553,198.5V22.055A22.1,22.1,0,0,0,198.5,0ZM173.125,80.51c-1.12,50.744-33.083,86.024-81.587,88.221-19.858,1.12-34.2-5.514-47.427-13.225,14.345,2.2,33.083-3.317,42.991-12.148-14.345-1.12-23.175-8.831-27.569-20.935,4.394,1.12,8.831,0,12.148,0C58.455,118.03,49.624,110.276,48.5,92.658a22.326,22.326,0,0,0,12.148,3.317c-9.908-5.514-16.541-26.449-8.831-39.717C66.166,71.68,83.784,84.947,112.473,87.144c-7.711-30.886,34.2-47.427,50.744-26.449,7.711-1.12,13.225-4.394,18.738-6.634-2.2,7.711-6.634,12.148-12.148,16.541,5.514-1.12,11.028-2.2,15.421-4.394C184.153,71.68,178.639,76.074,173.125,80.51Z" fill="#fff"/>
        </g>
      </g>
    </g>
  </g>
</svg>
