<svg xmlns="http://www.w3.org/2000/svg" width="212.68" height="224.11" viewBox="0 0 212.68 224.11">
  <title>customer</title>
  <g id="Layer_2" data-name="Layer 2">
    <g id="Layer_1-2" data-name="Layer 1">
      <g>
        <g>
          <path d="M182.63,71,108.42,10.9a3.31,3.31,0,0,0-4.16,0L30.06,71a3.32,3.32,0,0,0-1.23,2.58V207.81h155V73.55A3.34,3.34,0,0,0,182.63,71Z" style="fill: #f16465"/>
          <path d="M123.74,23.3,108.43,10.9a3.32,3.32,0,0,0-4.17,0L42.89,60.58,30.06,71a3.28,3.28,0,0,0-1.21,2.2,2.42,2.42,0,0,0,0,.38V207.81a3.32,3.32,0,0,0,3.31,3.32H42.89V86.94Z" style="fill: #d3555b"/>
          <path d="M212.66,82.07a3.36,3.36,0,0,0-1.24-2.21L112.48,2.13a9.91,9.91,0,0,0-12.28,0L1.27,79.86A3.37,3.37,0,0,0,0,82.07a3.33,3.33,0,0,0,.69,2.45L8.89,94.93a3.32,3.32,0,0,0,4.66.56l92.79-72.91,92.8,72.91a3.25,3.25,0,0,0,2,.71,3.3,3.3,0,0,0,2.61-1.27L212,84.52A3.32,3.32,0,0,0,212.66,82.07Z" style="fill: #f0f3fa"/>
          <rect x="88.67" y="144.21" width="35.33" height="63.6" style="fill: #ba795f"/>
          <rect x="88.67" y="144.21" width="10.6" height="63.6" style="fill: #ab6556"/>
          <path d="M127.32,144.21A3.31,3.31,0,0,0,124,140.9H88.67a3.31,3.31,0,0,0-3.31,3.31v62.72h42ZM120.7,204.5H92v-57H120.7Z" style="fill: #f0f3fa"/>
          <path d="M21.54,172.92A17.45,17.45,0,1,0,39,190.37,17.47,17.47,0,0,0,21.54,172.92Z" style="fill: #8baf5c"/>
          <path d="M27.06,202.29a17.43,17.43,0,0,1-14.78-26.7,17.44,17.44,0,1,0,24,24A17.34,17.34,0,0,1,27.06,202.29Z" style="opacity: 0.25"/>
          <path d="M60.41,172.92a17.45,17.45,0,1,0,17.44,17.45A17.47,17.47,0,0,0,60.41,172.92Z" style="fill: #8baf5c"/>
          <path d="M65.49,202.73a17.43,17.43,0,0,1-14.61-27A17.44,17.44,0,1,0,75,199.89,17.27,17.27,0,0,1,65.49,202.73Z" style="opacity: 0.25"/>
          <path d="M152.28,172.92a17.45,17.45,0,1,0,17.44,17.45A17.47,17.47,0,0,0,152.28,172.92Z" style="fill: #8baf5c"/>
          <path d="M156,202.44a17.43,17.43,0,0,1-13.1-26.76A17.44,17.44,0,1,0,167,199.77,17.38,17.38,0,0,1,156,202.44Z" style="opacity: 0.25"/>
          <path d="M191.14,172.92a17.45,17.45,0,1,0,17.45,17.45A17.46,17.46,0,0,0,191.14,172.92Z" style="fill: #8baf5c"/>
          <path d="M196.44,202.51a17.43,17.43,0,0,1-14.69-26.83,17.44,17.44,0,1,0,24.08,24.08A17.32,17.32,0,0,1,196.44,202.51Z" style="opacity: 0.25"/>
          <rect x="124.01" y="91.21" width="42.4" height="35.33" style="fill: #b6e0f7"/>
          <g>
            <polygon points="155.81 91.21 124.01 123.01 124.01 126.55 142.26 126.55 166.41 102.4 166.41 91.21 155.81 91.21" style="fill: #a1d1f0"/>
            <polygon points="124.01 91.21 124.01 111.23 144.03 91.21 124.01 91.21" style="fill: #a1d1f0"/>
            <polygon points="150.21 126.55 166.41 126.55 166.41 110.35 150.21 126.55" style="fill: #a1d1f0"/>
          </g>
          <path d="M166.41,87.9H124a3.31,3.31,0,0,0-3.31,3.31v35.34a3.31,3.31,0,0,0,3.31,3.31h42.4a3.31,3.31,0,0,0,3.31-3.31V91.21A3.31,3.31,0,0,0,166.41,87.9Zm-39.09,6.62H141.9v28.71H127.32Zm35.78,28.71H148.52V94.53H163.1Z" style="fill: #f0f3fa"/>
          <rect x="46.05" y="91.21" width="42.4" height="35.33" style="fill: #b6e0f7"/>
          <g>
            <polygon points="78.07 91.21 46.27 123.01 46.27 126.55 64.53 126.55 88.67 102.4 88.67 91.21 78.07 91.21" style="fill: #a1d1f0"/>
            <polygon points="46.27 91.21 46.27 111.23 66.3 91.21 46.27 91.21" style="fill: #a1d1f0"/>
            <polygon points="72.48 126.55 88.67 126.55 88.67 110.35 72.48 126.55" style="fill: #a1d1f0"/>
          </g>
          <path d="M88.45,87.9H46.05a3.31,3.31,0,0,0-3.31,3.31v35.34a3.31,3.31,0,0,0,3.31,3.31h42.4a3.32,3.32,0,0,0,3.32-3.31V91.21A3.32,3.32,0,0,0,88.45,87.9ZM49.37,94.52H63.94v28.71H49.37Zm35.77,28.71H70.57V94.53H85.14Z" style="fill: #f0f3fa"/>
          <rect x="92.21" y="45.28" width="28.27" height="28.27" style="fill: #b6e0f7"/>
          <path d="M120.47,42H92.21a3.31,3.31,0,0,0-3.31,3.31V73.55a3.31,3.31,0,0,0,3.31,3.31h28.26a3.32,3.32,0,0,0,3.32-3.31V45.28A3.32,3.32,0,0,0,120.47,42ZM117.16,56.1h-7.51V48.59h7.51ZM103,48.59V56.1H95.52V48.59ZM95.52,62.72H103v7.51H95.52Zm14.13,7.51V62.72h7.51v7.51Z" style="fill: #f0f3fa"/>
          <g>
            <path d="M99.27,179.33A3.32,3.32,0,0,1,96,176v-3.53a3.32,3.32,0,0,1,6.63,0V176A3.32,3.32,0,0,1,99.27,179.33Z" style="fill: #5c5e6f"/>
            <path d="M208.81,211.13H3.87a3.32,3.32,0,0,1,0-6.63H208.81a3.32,3.32,0,0,1,0,6.63Z" style="fill: #5c5e6f"/>
          </g>
        </g>
        <g>
          <path d="M106.8,120.43c-24.24,0-21.55,29.48-21.44,50.85a2.29,2.29,0,0,0,1.12,1.95,41,41,0,0,0,40.65,0,2.31,2.31,0,0,0,1.12-1.95C128.36,149.91,131.05,120.43,106.8,120.43Z" style="fill: #6a4c4c"/>
          <path d="M105.24,120.49c-22.55,1.27-20,29.9-19.88,50.79a2.29,2.29,0,0,0,1.12,1.95,40.15,40.15,0,0,0,20.32,5.4l6.13-42.88" style="fill: #5b4247"/>
          <path d="M106.8,120.43c-13.78,0-14.74,16.66-14.74,16.66,8-1.34,12.83,2,20.87-1.34l-6.13,42.88a40.19,40.19,0,0,0,20.33-5.4,2.31,2.31,0,0,0,1.12-1.95C128.36,149.91,131.05,120.43,106.8,120.43Z" style="fill: #6a4c4c"/>
          <path d="M128.25,171.28c.09-18.36,2.07-42.69-12.75-49.18-.26,1.34-.72,5.09.49,7.52,3.07,6.13,6.13,6.13,9.19,10.72,3.07,16.85-5.85,34.73-8.81,37.17h0a38.84,38.84,0,0,0,10.76-4.28A2.31,2.31,0,0,0,128.25,171.28Z" style="fill: #795651"/>
          <path d="M130,175.92l-13.66-5.69a3.06,3.06,0,0,1-1.89-2.83v-3.7H99.15v3.7a3.07,3.07,0,0,1-1.89,2.83l-13.67,5.69a4.6,4.6,0,0,0-2.82,4.25v6.12a3.07,3.07,0,0,0,3.06,3.07h46a3.07,3.07,0,0,0,3.06-3.07v-6.12A4.6,4.6,0,0,0,130,175.92Z" style="fill: #e6b078"/>
          <path d="M130,175.92l-13.21-5.5-10,4.31-10-4.31-13.22,5.5a4.6,4.6,0,0,0-2.82,4.25v6.12a3.07,3.07,0,0,0,3.06,3.07h46a3.07,3.07,0,0,0,3.06-3.07v-6.12A4.6,4.6,0,0,0,130,175.92Z" style="fill: #f0f3fa"/>
          <path d="M114.46,163.7H99.14v3.7a3.07,3.07,0,0,1-1.88,2.83l-2.13.89C111.46,175.28,114.46,163.7,114.46,163.7Z" style="fill: #d29b6e"/>
          <g>
            <path d="M88.23,181.85,82.08,177a4.58,4.58,0,0,0-1.31,3.2v6.13a3.06,3.06,0,0,0,3.06,3.06H90v-3.91A4.59,4.59,0,0,0,88.23,181.85Z" style="fill: #e4e9f6"/>
            <path d="M132.84,186.29v-6.13a4.59,4.59,0,0,0-1.3-3.18l-6.16,4.87a4.59,4.59,0,0,0-1.73,3.59v3.91h6.13A3.06,3.06,0,0,0,132.84,186.29Z" style="fill: #e4e9f6"/>
            <path d="M107,186.29h-.46a1.3,1.3,0,0,1-1.3-1.3V174.74h3.06V185A1.3,1.3,0,0,1,107,186.29Z" style="fill: #e4e9f6"/>
            <path d="M106.8,174.73,98,168.16a1.23,1.23,0,0,0-1.76.3l-1.73,2.6,5.37,7.52a1.23,1.23,0,0,0,1.77.24Z" style="fill: #e4e9f6"/>
            <path d="M106.8,174.73l8.77-6.57a1.22,1.22,0,0,1,1.75.3l1.74,2.6-5.38,7.52a1.22,1.22,0,0,1-1.76.24Z" style="fill: #e4e9f6"/>
          </g>
          <path d="M114.46,134.22c-7.66,7.65-22.69,1.53-22.69,13.78l1,9a6.12,6.12,0,0,0,3.12,4.8l8.72,4.84a4.59,4.59,0,0,0,4.46,0l8.72-4.84a6.11,6.11,0,0,0,3.13-4.8l1.1-10.72a17.68,17.68,0,0,0,.07-2.3C121.47,140.12,116,137.28,114.46,134.22Z" style="fill: #efc087"/>
          <path d="M91.77,148l1,9a6.12,6.12,0,0,0,3.12,4.8l8.72,4.84a4.54,4.54,0,0,0,3.12.47h0s-4.4-1.33-7-8.42c-.81-2.17-1.92-13.65-1-15.06,1.89-2.77,12.44-3.06,15.56-8.21q-.23-.28-.42-.57l0,0a6.48,6.48,0,0,1-.36-.61C106.8,141.87,91.77,135.75,91.77,148Z" style="fill: #e6b078"/>
          <path d="M118,186.29h-4a2.6,2.6,0,0,0-2.6,2.6v.46h9.19v-.46A2.61,2.61,0,0,0,118,186.29Z" style="fill: #e4e9f6"/>
        </g>
        <g>
          <rect x="49.84" y="187.11" width="113" height="37" rx="4.04" style="fill: #fff"/>
          <text transform="translate(62.18 213.89)" style="font-size: 20px;fill: #2e2e2e;font-family: Nunito-Bold, Nunito;font-weight: 700"><tspan style="letter-spacing: -0.010009765625em">C</tspan><tspan x="13.36" y="0">u</tspan><tspan x="24.94" y="0" style="letter-spacing: -0.0050048828125em">s</tspan><tspan x="34.54" y="0">tomer</tspan></text>
        </g>
      </g>
    </g>
  </g>
</svg>
