<?xml version="1.0" encoding="utf-8"?>
<!-- Generator: Adobe Illustrator 23.0.2, SVG Export Plug-In . SVG Version: 6.00 Build 0)  -->
<svg version="1.1" id="Layer_1" xmlns="http://www.w3.org/2000/svg" xmlns:xlink="http://www.w3.org/1999/xlink" x="0px" y="0px"
	 viewBox="0 0 212.7 224.1" style="enable-background:new 0 0 212.7 224.1;" xml:space="preserve">
<style type="text/css">
	.st0{fill:#F16465;}
	.st1{fill:#D3555B;}
	.st2{fill:#F0F3FA;}
	.st3{fill:#BA795F;}
	.st4{fill:#AB6556;}
	.st5{fill:#8BAF5C;}
	.st6{opacity:0.25;enable-background:new    ;}
	.st7{fill:#B6E0F7;}
	.st8{fill:#A1D1F0;}
	.st9{fill:#5C5E6F;}
	.st10{fill:#6A4C4C;}
	.st11{fill:#5B4247;}
	.st12{fill:#795651;}
	.st13{fill:#E6B078;}
	.st14{fill:#D29B6E;}
	.st15{fill:#E4E9F6;}
	.st16{fill:#EFC087;}
	.st17{fill:#FFFFFF;}
	.st18{enable-background:new    ;}
	.st19{fill:#2E2E2E;}
</style>
<title>customer</title>
<g>
	<path class="st0" d="M182.6,71l-74.2-60.1c-1.2-1-2.9-1-4.2,0L30.1,71c-0.8,0.6-1.2,1.6-1.2,2.6v134.2h155V73.6
		C183.8,72.6,183.4,71.6,182.6,71z"/>
	<path class="st1" d="M123.7,23.3l-15.3-12.4c-1.2-1-3-1-4.2,0L42.9,60.6L30.1,71c-0.7,0.5-1.1,1.3-1.2,2.2c0,0.1,0,0.3,0,0.4v134.2
		c0,1.8,1.5,3.3,3.3,3.3h10.7V86.9L123.7,23.3z"/>
	<path class="st2" d="M212.7,82.1c-0.1-0.9-0.6-1.7-1.2-2.2L112.5,2.1c-3.6-2.8-8.7-2.8-12.3,0L1.3,79.9c-0.7,0.5-1.2,1.3-1.3,2.2
		c-0.1,0.9,0.1,1.8,0.7,2.4l8.2,10.4c1.1,1.4,3.2,1.7,4.7,0.6l92.8-72.9l92.8,72.9c0.6,0.5,1.3,0.7,2,0.7c1,0,2-0.5,2.6-1.3
		l8.2-10.4C212.5,83.8,212.8,82.9,212.7,82.1z"/>
	<rect x="88.7" y="144.2" class="st3" width="35.3" height="63.6"/>
	<rect x="88.7" y="144.2" class="st4" width="10.6" height="63.6"/>
	<path class="st2" d="M127.3,144.2c0-1.8-1.5-3.3-3.3-3.3c0,0,0,0,0,0H88.7c-1.8,0-3.3,1.5-3.3,3.3v62.7h42L127.3,144.2z
		 M120.7,204.5H92v-57h28.7V204.5z"/>
	<path class="st5" d="M21.5,172.9c-9.6,0-17.4,7.8-17.4,17.5c0,9.6,7.8,17.4,17.5,17.4c9.6,0,17.4-7.8,17.4-17.4
		C39,180.7,31.2,172.9,21.5,172.9z"/>
	<path class="st6" d="M27.1,202.3c-9.6,0-17.4-7.8-17.4-17.4c0-3.3,0.9-6.5,2.7-9.3c-8.2,5.1-10.7,15.8-5.7,24s15.8,10.7,24,5.7
		c2.3-1.4,4.3-3.4,5.7-5.7C33.5,201.3,30.3,202.3,27.1,202.3z"/>
	<path class="st5" d="M60.4,172.9c-9.6,0-17.5,7.8-17.5,17.4c0,9.6,7.8,17.5,17.4,17.5s17.5-7.8,17.5-17.4c0,0,0,0,0,0
		C77.8,180.7,70,172.9,60.4,172.9z"/>
	<path class="st6" d="M65.5,202.7c-9.6,0-17.4-7.8-17.5-17.4c0-3.4,1-6.8,2.9-9.6c-8.1,5.3-10.3,16.1-5.1,24.1s16.1,10.3,24.1,5.1
		c2-1.3,3.7-3,5.1-5.1C72.2,201.7,68.9,202.7,65.5,202.7z"/>
	<path class="st5" d="M152.3,172.9c-9.6,0-17.5,7.8-17.5,17.4c0,9.6,7.8,17.5,17.4,17.5c9.6,0,17.5-7.8,17.5-17.4c0,0,0,0,0,0
		C169.7,180.7,161.9,172.9,152.3,172.9z"/>
	<path class="st6" d="M156,202.4c-9.6-0.9-16.7-9.3-15.8-18.9c0.3-2.8,1.2-5.5,2.7-7.8c-8.1,5.2-10.5,16-5.3,24.1
		c5.2,8.1,16,10.5,24.1,5.3c2.1-1.4,3.9-3.2,5.3-5.3C163.7,201.9,159.9,202.8,156,202.4z"/>
	<path class="st5" d="M191.1,172.9c-9.6,0-17.5,7.8-17.5,17.4c0,9.6,7.8,17.5,17.5,17.5c9.6,0,17.4-7.8,17.4-17.5l0,0
		C208.6,180.7,200.8,172.9,191.1,172.9z"/>
	<path class="st6" d="M196.4,202.5c-9.6,0-17.4-7.8-17.4-17.4c0-3.3,1-6.6,2.8-9.4c-8.1,5.2-10.5,16-5.3,24.1
		c5.2,8.1,16,10.5,24.1,5.3c2.1-1.4,4-3.2,5.3-5.3C203,201.6,199.8,202.5,196.4,202.5z"/>
	<rect x="124" y="91.2" class="st7" width="42.4" height="35.3"/>
	<g>
		<polygon class="st8" points="155.8,91.2 124,123 124,126.6 142.3,126.6 166.4,102.4 166.4,91.2 		"/>
		<polygon class="st8" points="124,91.2 124,111.2 144,91.2 		"/>
		<polygon class="st8" points="150.2,126.6 166.4,126.6 166.4,110.3 		"/>
	</g>
	<path class="st2" d="M166.4,87.9H124c-1.8,0-3.3,1.5-3.3,3.3v35.3c0,1.8,1.5,3.3,3.3,3.3h42.4c1.8,0,3.3-1.5,3.3-3.3V91.2
		C169.7,89.4,168.2,87.9,166.4,87.9z M127.3,94.5h14.6v28.7h-14.6L127.3,94.5z M163.1,123.2h-14.6V94.5h14.6V123.2z"/>
	<rect x="46" y="91.2" class="st7" width="42.4" height="35.3"/>
	<g>
		<polygon class="st8" points="78.1,91.2 46.3,123 46.3,126.6 64.5,126.6 88.7,102.4 88.7,91.2 		"/>
		<polygon class="st8" points="46.3,91.2 46.3,111.2 66.3,91.2 		"/>
		<polygon class="st8" points="72.5,126.6 88.7,126.6 88.7,110.3 		"/>
	</g>
	<path class="st2" d="M88.4,87.9H46c-1.8,0-3.3,1.5-3.3,3.3v35.3c0,1.8,1.5,3.3,3.3,3.3h42.4c1.8,0,3.3-1.5,3.3-3.3V91.2
		C91.8,89.4,90.3,87.9,88.4,87.9z M49.4,94.5h14.6v28.7H49.4V94.5z M85.1,123.2H70.6V94.5h14.6V123.2z"/>
	<rect x="92.2" y="45.3" class="st7" width="28.3" height="28.3"/>
	<path class="st2" d="M120.5,42H92.2c-1.8,0-3.3,1.5-3.3,3.3v28.2c0,1.8,1.5,3.3,3.3,3.3h28.3c1.8,0,3.3-1.5,3.3-3.3V45.3
		C123.8,43.5,122.3,42,120.5,42z M117.2,56.1h-7.5v-7.5h7.5V56.1z M103,48.6v7.5h-7.5v-7.5H103z M95.5,62.7h7.5v7.5h-7.5V62.7z
		 M109.6,70.2v-7.5h7.5v7.5H109.6z"/>
	<g>
		<path class="st9" d="M99.3,179.3c-1.8,0-3.3-1.5-3.3-3.3v-3.5c0.1-1.8,1.7-3.2,3.5-3.1c1.7,0.1,3,1.4,3.1,3.1v3.5
			C102.6,177.8,101.2,179.3,99.3,179.3C99.3,179.3,99.3,179.3,99.3,179.3z"/>
		<path class="st9" d="M208.8,211.1H3.9c-1.8-0.1-3.2-1.7-3.1-3.5c0.1-1.7,1.4-3,3.1-3.1h204.9c1.8,0.1,3.2,1.7,3.1,3.5
			C211.9,209.7,210.5,211,208.8,211.1z"/>
	</g>
</g>
<g>
	<path class="st10" d="M106.8,120.4c-24.2,0-21.6,29.5-21.4,50.8c0,0.8,0.4,1.5,1.1,1.9c12.6,7.2,28.1,7.2,40.7,0
		c0.7-0.4,1.1-1.1,1.1-1.9C128.4,149.9,131.1,120.4,106.8,120.4z"/>
	<path class="st11" d="M105.2,120.5c-22.5,1.3-20,29.9-19.9,50.8c0,0.8,0.4,1.5,1.1,1.9c6.2,3.6,13.2,5.4,20.3,5.4l6.1-42.9"/>
	<path class="st10" d="M106.8,120.4c-13.8,0-14.7,16.7-14.7,16.7c8-1.3,12.8,2,20.9-1.3l-6.1,42.9c7.1,0,14.2-1.8,20.3-5.4
		c0.7-0.4,1.1-1.1,1.1-1.9C128.4,149.9,131.1,120.4,106.8,120.4z"/>
	<path class="st12" d="M128.2,171.3c0.1-18.4,2.1-42.7-12.8-49.2c-0.3,1.3-0.7,5.1,0.5,7.5c3.1,6.1,6.1,6.1,9.2,10.7
		c3.1,16.9-5.8,34.7-8.8,37.2l0,0c3.8-0.9,7.4-2.3,10.8-4.3C127.8,172.8,128.2,172.1,128.2,171.3z"/>
	<path class="st13" d="M130,175.9l-13.7-5.7c-1.1-0.5-1.9-1.6-1.9-2.8v-3.7H99.2v3.7c0,1.2-0.7,2.4-1.9,2.8l-13.7,5.7
		c-1.7,0.7-2.8,2.4-2.8,4.2v6.1c0,1.7,1.4,3.1,3.1,3.1h46c1.7,0,3.1-1.4,3.1-3.1v-6.1C132.9,178.3,131.7,176.6,130,175.9z"/>
	<path class="st2" d="M130,175.9l-13.2-5.5l-10,4.3l-10-4.3l-13.2,5.5c-1.7,0.7-2.8,2.4-2.8,4.2v6.1c0,1.7,1.4,3.1,3.1,3.1h46
		c1.7,0,3.1-1.4,3.1-3.1v-6.1C132.9,178.3,131.7,176.6,130,175.9z"/>
	<path class="st14" d="M114.5,163.7H99.1v3.7c0,1.2-0.7,2.4-1.9,2.8l-2.1,0.9C111.5,175.3,114.5,163.7,114.5,163.7z"/>
	<g>
		<path class="st15" d="M88.2,181.9l-6.2-4.9c-0.8,0.9-1.3,2-1.3,3.2v6.1c0,1.7,1.4,3.1,3.1,3.1H90v-3.9
			C90,184.1,89.3,182.7,88.2,181.9z"/>
		<path class="st15" d="M132.8,186.3v-6.1c0-1.2-0.5-2.3-1.3-3.2l-6.2,4.9c-1.1,0.9-1.7,2.2-1.7,3.6v3.9h6.1
			C131.5,189.3,132.8,188,132.8,186.3C132.8,186.3,132.8,186.3,132.8,186.3z"/>
		<path class="st15" d="M107,186.3h-0.5c-0.7,0-1.3-0.6-1.3-1.3l0,0v-10.2h3.1V185C108.3,185.7,107.7,186.3,107,186.3z"/>
		<path class="st15" d="M106.8,174.7l-8.8-6.6c-0.5-0.4-1.3-0.3-1.7,0.2c0,0,0,0,0,0.1l-1.7,2.6l5.4,7.5c0.4,0.6,1.2,0.7,1.7,0.3
			c0,0,0,0,0.1,0L106.8,174.7z"/>
		<path class="st15" d="M106.8,174.7l8.8-6.6c0.5-0.4,1.3-0.3,1.7,0.2c0,0,0,0,0,0.1l1.7,2.6l-5.4,7.5c-0.4,0.5-1.2,0.7-1.7,0.3
			c0,0,0,0-0.1,0L106.8,174.7z"/>
	</g>
	<path class="st16" d="M114.5,134.2c-7.7,7.6-22.7,1.5-22.7,13.8l1,9c0.2,2,1.3,3.8,3.1,4.8l8.7,4.8c1.4,0.8,3.1,0.8,4.5,0l8.7-4.8
		c1.8-1,2.9-2.8,3.1-4.8l1.1-10.7c0.1-0.8,0.1-1.5,0.1-2.3C121.5,140.1,116,137.3,114.5,134.2z"/>
	<path class="st13" d="M91.8,148l1,9c0.2,2,1.3,3.8,3.1,4.8l8.7,4.8c1,0.5,2.1,0.7,3.1,0.5l0,0c0,0-4.4-1.3-7-8.4
		c-0.8-2.2-1.9-13.6-1-15.1c1.9-2.8,12.4-3.1,15.6-8.2c-0.2-0.2-0.3-0.4-0.4-0.6l0,0c-0.1-0.2-0.3-0.4-0.4-0.6
		C106.8,141.9,91.8,135.8,91.8,148z"/>
	<path class="st15" d="M118,186.3h-4c-1.4,0-2.6,1.2-2.6,2.6l0,0v0.5h9.2v-0.5C120.6,187.5,119.4,186.3,118,186.3z"/>
</g>
<path class="st17" d="M53.9,187.1h104.9c2.2,0,4,1.8,4,4v28.9c0,2.2-1.8,4-4,4H53.9c-2.2,0-4-1.8-4-4v-28.9
	C49.8,188.9,51.6,187.1,53.9,187.1z"/>
<g class="st18">
	<path class="st19" d="M66.4,213.2c-1-0.6-1.8-1.4-2.4-2.5c-0.5-1.1-0.8-2.4-0.8-3.8s0.3-2.7,0.8-3.8s1.3-1.9,2.4-2.5
		c1-0.6,2.2-0.9,3.6-0.9c0.9,0,1.7,0.1,2.5,0.4c0.8,0.3,1.5,0.6,2.1,1.1c0.2,0.1,0.3,0.3,0.4,0.4c0.1,0.1,0.1,0.3,0.1,0.5
		c0,0.3-0.1,0.5-0.2,0.7c-0.2,0.2-0.4,0.3-0.6,0.3c-0.3,0-0.5-0.1-0.8-0.3c-0.6-0.4-1.1-0.7-1.6-0.9c-0.5-0.2-1-0.2-1.6-0.2
		c-1.4,0-2.4,0.4-3.1,1.3c-0.7,0.9-1.1,2.1-1.1,3.8c0,1.7,0.4,3,1.1,3.8c0.7,0.9,1.8,1.3,3.1,1.3c0.6,0,1.1-0.1,1.6-0.3
		c0.5-0.2,1-0.5,1.7-0.9c0.1-0.1,0.3-0.1,0.4-0.2c0.1-0.1,0.3-0.1,0.4-0.1c0.2,0,0.4,0.1,0.6,0.3s0.2,0.4,0.2,0.7
		c0,0.2,0,0.4-0.1,0.5c-0.1,0.2-0.2,0.3-0.4,0.4c-0.6,0.5-1.3,0.9-2.1,1.1s-1.6,0.4-2.5,0.4C68.6,214.1,67.5,213.8,66.4,213.2z"/>
</g>
<g class="st18">
	<path class="st19" d="M85.5,204.2c0.2,0.2,0.3,0.5,0.3,0.9v7.8c0,0.3-0.1,0.6-0.3,0.8c-0.2,0.2-0.5,0.3-0.9,0.3
		c-0.4,0-0.6-0.1-0.9-0.3c-0.2-0.2-0.3-0.5-0.3-0.8v-0.5c-0.3,0.5-0.7,0.9-1.2,1.2c-0.5,0.3-1.1,0.4-1.8,0.4c-2.4,0-3.6-1.3-3.6-4
		v-4.9c0-0.4,0.1-0.6,0.3-0.9c0.2-0.2,0.5-0.3,0.9-0.3c0.4,0,0.7,0.1,0.9,0.3c0.2,0.2,0.3,0.5,0.3,0.9v4.9c0,0.7,0.1,1.2,0.4,1.5
		c0.3,0.3,0.7,0.5,1.3,0.5c0.7,0,1.2-0.2,1.7-0.7s0.6-1.1,0.6-1.8v-4.5c0-0.4,0.1-0.6,0.3-0.9c0.2-0.2,0.5-0.3,0.9-0.3
		C84.9,203.9,85.3,204,85.5,204.2z"/>
</g>
<g class="st18">
	<path class="st19" d="M88.4,213.2c-0.4-0.3-0.6-0.6-0.6-1.1c0-0.3,0.1-0.5,0.2-0.6c0.1-0.2,0.3-0.2,0.5-0.2c0.2,0,0.5,0.1,0.9,0.3
		c0.4,0.2,0.8,0.4,1.2,0.5c0.4,0.1,0.8,0.2,1.4,0.2c0.6,0,1-0.1,1.3-0.3c0.3-0.2,0.5-0.4,0.5-0.8c0-0.2-0.1-0.4-0.2-0.5
		c-0.1-0.1-0.4-0.3-0.7-0.4c-0.3-0.1-0.8-0.2-1.5-0.4c-1.2-0.2-2-0.6-2.5-1c-0.5-0.4-0.8-1-0.8-1.8c0-0.6,0.2-1.1,0.5-1.6
		c0.3-0.5,0.8-0.8,1.4-1.1c0.6-0.3,1.3-0.4,2.1-0.4c0.6,0,1.1,0.1,1.6,0.2c0.5,0.1,1,0.3,1.4,0.6c0.4,0.3,0.6,0.6,0.6,1.1
		c0,0.3-0.1,0.5-0.2,0.7c-0.1,0.2-0.3,0.3-0.5,0.3c-0.1,0-0.3,0-0.4-0.1c-0.1-0.1-0.3-0.2-0.5-0.3c-0.4-0.2-0.7-0.4-1-0.5
		c-0.3-0.1-0.6-0.2-1-0.2c-0.5,0-0.9,0.1-1.2,0.3c-0.3,0.2-0.4,0.5-0.4,0.8c0,0.3,0.1,0.6,0.4,0.8c0.3,0.2,0.9,0.3,1.7,0.5
		c0.9,0.2,1.6,0.4,2.1,0.6c0.5,0.2,0.9,0.5,1.1,0.9c0.2,0.4,0.3,0.8,0.3,1.4c0,0.9-0.4,1.6-1.1,2.2c-0.8,0.5-1.8,0.8-3,0.8
		C90.5,214,89.3,213.8,88.4,213.2z"/>
</g>
<g class="st18">
	<path class="st19" d="M104.1,213c0,0.3-0.1,0.6-0.4,0.7c-0.3,0.2-0.6,0.2-1.1,0.2l-0.5,0c-2.2-0.2-3.4-1.4-3.4-3.6V206h-1
		c-0.4,0-0.6-0.1-0.8-0.2c-0.2-0.2-0.3-0.4-0.3-0.7s0.1-0.5,0.3-0.7s0.5-0.2,0.8-0.2h1v-1.8c0-0.4,0.1-0.6,0.3-0.9
		c0.2-0.2,0.5-0.3,0.9-0.3c0.4,0,0.7,0.1,0.9,0.3c0.2,0.2,0.3,0.5,0.3,0.9v1.8h1.7c0.4,0,0.6,0.1,0.8,0.2s0.3,0.4,0.3,0.7
		s-0.1,0.5-0.3,0.7c-0.2,0.2-0.5,0.2-0.8,0.2h-1.7v4.5c0,1,0.5,1.5,1.4,1.6l0.5,0C103.8,212.2,104.1,212.5,104.1,213z"/>
	<path class="st19" d="M107.2,213.4c-0.8-0.4-1.3-1-1.8-1.8c-0.4-0.8-0.6-1.7-0.6-2.7c0-1,0.2-1.9,0.6-2.7s1-1.4,1.8-1.8
		c0.8-0.4,1.6-0.6,2.6-0.6s1.9,0.2,2.6,0.6c0.8,0.4,1.3,1,1.7,1.8c0.4,0.8,0.6,1.7,0.6,2.7c0,1-0.2,1.9-0.6,2.7
		c-0.4,0.8-1,1.4-1.7,1.8c-0.8,0.4-1.6,0.6-2.6,0.6S108,213.8,107.2,213.4z M111.7,211.3c0.4-0.5,0.6-1.3,0.6-2.4
		c0-1-0.2-1.8-0.6-2.3c-0.4-0.5-1-0.8-1.8-0.8c-0.8,0-1.4,0.3-1.8,0.8s-0.7,1.3-0.7,2.3c0,1,0.2,1.8,0.6,2.4s1,0.8,1.8,0.8
		C110.7,212.1,111.3,211.8,111.7,211.3z"/>
	<path class="st19" d="M131,204.8c0.6,0.6,0.9,1.7,0.9,3.1v4.9c0,0.4-0.1,0.7-0.4,0.9c-0.2,0.2-0.5,0.3-0.9,0.3
		c-0.4,0-0.7-0.1-0.9-0.3c-0.2-0.2-0.3-0.5-0.3-0.9v-4.9c0-0.7-0.1-1.3-0.4-1.6c-0.3-0.3-0.7-0.5-1.2-0.5c-0.7,0-1.2,0.2-1.6,0.7
		c-0.4,0.4-0.6,1.1-0.6,1.8v4.5c0,0.4-0.1,0.7-0.3,0.9c-0.2,0.2-0.5,0.3-0.9,0.3c-0.4,0-0.7-0.1-0.9-0.3c-0.2-0.2-0.4-0.5-0.4-0.9
		v-4.9c0-0.7-0.1-1.3-0.4-1.6c-0.3-0.3-0.7-0.5-1.2-0.5c-0.7,0-1.2,0.2-1.5,0.7c-0.4,0.4-0.6,1.1-0.6,1.8v4.5c0,0.4-0.1,0.7-0.4,0.9
		c-0.2,0.2-0.5,0.3-0.9,0.3c-0.4,0-0.7-0.1-0.9-0.3c-0.2-0.2-0.4-0.5-0.4-0.9v-7.7c0-0.4,0.1-0.7,0.4-0.9c0.2-0.2,0.5-0.3,0.9-0.3
		c0.3,0,0.6,0.1,0.8,0.3c0.2,0.2,0.3,0.5,0.3,0.8v0.5c0.3-0.5,0.7-0.9,1.2-1.2c0.5-0.3,1.1-0.4,1.8-0.4c1.5,0,2.4,0.6,2.9,1.8
		c0.3-0.6,0.7-1,1.3-1.3c0.6-0.3,1.2-0.5,1.9-0.5C129.6,203.9,130.4,204.2,131,204.8z"/>
	<path class="st19" d="M142.6,211.5c0.1,0.2,0.2,0.4,0.2,0.7c0,0.4-0.2,0.8-0.7,1c-0.5,0.3-1,0.5-1.5,0.6c-0.6,0.2-1.1,0.2-1.6,0.2
		c-1.6,0-2.8-0.5-3.7-1.4c-0.9-0.9-1.4-2.1-1.4-3.7c0-1,0.2-1.9,0.6-2.7c0.4-0.8,1-1.4,1.7-1.8s1.5-0.6,2.5-0.6
		c0.9,0,1.6,0.2,2.3,0.6c0.7,0.4,1.2,0.9,1.5,1.6s0.5,1.5,0.5,2.5c0,0.6-0.3,0.9-0.8,0.9h-5.9c0.1,0.9,0.3,1.6,0.8,2
		c0.4,0.4,1.1,0.7,1.9,0.7c0.4,0,0.8-0.1,1.1-0.2c0.3-0.1,0.7-0.3,1.1-0.4c0.4-0.2,0.7-0.3,0.9-0.3
		C142.3,211.2,142.5,211.3,142.6,211.5z M137,206.3c-0.4,0.4-0.7,1-0.7,1.8h4.5c0-0.8-0.2-1.4-0.6-1.8s-0.9-0.6-1.6-0.6
		C138,205.6,137.4,205.8,137,206.3z"/>
	<path class="st19" d="M151.3,204.1c0.2,0.2,0.3,0.4,0.3,0.8c0,0.4-0.1,0.6-0.3,0.8c-0.2,0.2-0.5,0.3-0.9,0.3l-0.6,0.1
		c-0.8,0.1-1.4,0.3-1.7,0.8c-0.4,0.5-0.6,1-0.6,1.7v4.2c0,0.4-0.1,0.7-0.4,0.9c-0.2,0.2-0.5,0.3-0.9,0.3c-0.4,0-0.7-0.1-0.9-0.3
		c-0.2-0.2-0.4-0.5-0.4-0.9v-7.7c0-0.4,0.1-0.7,0.4-0.9c0.2-0.2,0.5-0.3,0.9-0.3s0.6,0.1,0.8,0.3c0.2,0.2,0.3,0.5,0.3,0.8v0.8
		c0.3-0.6,0.6-1,1.1-1.4s1.1-0.5,1.7-0.5l0.3,0C150.8,203.9,151.1,204,151.3,204.1z"/>
</g>
</svg>
