<svg xmlns="http://www.w3.org/2000/svg" width="512.34" height="511.02" viewBox="0 0 512.34 511.02">
  <title>discord</title>
  <g id="Layer_2" data-name="Layer 2">
    <g id="Capa_1" data-name="Capa 1">
      <g>
        <ellipse cx="200.76" cy="272.31" rx="30.19" ry="32.08" style="fill: #fff"/>
        <ellipse cx="311.58" cy="272.31" rx="30.19" ry="32.08" style="fill: #fff"/>
        <path d="M0,0V511H512.34V0ZM340.35,383.25l-19.18-27.7c24.73-6.7,42.4-22.06,53-34-29.61,20.94-71.52,34-118,34s-88.4-13.09-118-34c10.61,12,28.28,27.32,53,34L172,383.25s-52.21,6.39-93.77-43.69c0,0,2.48-124.32,46.6-181.15,0,0,25.5-27,83.4-30.9V136s-31.76-1.84-71.07,36.85c29.68-21.35,72-34.72,119-34.72s89.34,13.38,119,34.72C335.88,134.19,304.12,136,304.12,136v-8.52c57.9,3.91,83.4,30.9,83.4,30.9,44.12,56.83,46.61,181.15,46.6,181.15C392.56,389.64,340.35,383.25,340.35,383.25Z" style="fill: #fff"/>
      </g>
    </g>
  </g>
</svg>
