<svg xmlns="http://www.w3.org/2000/svg" xmlns:xlink="http://www.w3.org/1999/xlink" width="391.12" height="400.54" viewBox="0 0 391.12 400.54">
  <defs>
    <radialGradient id="radial-gradient" cx="254.83" cy="211.41" fx="361.3072388945283" fy="88.5048909652136" r="213.29" gradientUnits="userSpaceOnUse">
      <stop offset="0" stop-color="#5ab0b2"/>
      <stop offset="1" stop-color="#0b5d9e"/>
    </radialGradient>
    <radialGradient id="radial-gradient-2" cx="359.71" cy="315.82" r="144.41" gradientUnits="userSpaceOnUse">
      <stop offset="0" stop-color="#018250"/>
      <stop offset="1" stop-color="#139b48"/>
    </radialGradient>
    <radialGradient id="radial-gradient-3" cx="178.06" cy="29" fx="143.96083145268818" fy="20.58272047817276" r="163.89" gradientUnits="userSpaceOnUse">
      <stop offset="0" stop-color="#a2cf6f"/>
      <stop offset="1" stop-color="#139b48"/>
    </radialGradient>
  </defs>
  <title>Asset 10</title>
  <g id="Layer_2" data-name="Layer 2">
    <g id="Layer_1-2" data-name="Layer 1">
      <circle cx="195.36" cy="205" r="192.25" style="fill: url(#radial-gradient)"/>
      <path d="M328.86,161.24c1.25-22,20.42-41.1,40.54-49.56,2.58-1.08,3.89.85,5.44,1.46s2,3.17,2.72,5.21c5.89,16,10.52,32.74,12.39,50.16h0l1.17,22.19c0,61.88-26.81,117.89-70.12,158.4v0a240.25,240.25,0,0,1-53.58,38.43c-3.92,2.05-7.53,4.37-11.83,5.39s-20.89,7.59-20.89,7.59c-44.68,0-68.23-41-68.23-82.85s32.11-68.24,55.86-78.63c21.42-9.37,39.85-6.25,53.55-5.35s24.24,3.32,35.77-3.06c10.71-5.93,18.74-19.45,18.74-29.65S327.84,179.06,328.86,161.24Z" style="fill: #081c1d"/>
      <path d="M327.57,46.54c10.81,15.75,16.61,19.36,11.07,30.28-2.42,4.75-1.54,11.48-3.15,19.49-9.24,45.95-40.43,95.63-85.34,95.63-12,0-31.86-4.93-42.13-9.82l-.12-.05a92.43,92.43,0,0,0-40.77-8.92c-55.81,0-91.79,36.7-91.79,94.9A108.32,108.32,0,0,0,88.46,320h0a25.69,25.69,0,0,1,3.12,12.32c0,13.82-10.74,25-24,25a23.85,23.85,0,0,1-21.12-13.16A229.18,229.18,0,0,1,17,231.12C17,108,112.66,8.18,230.71,8.18a206.69,206.69,0,0,1,32.83,2.64" style="fill: #081c1d"/>
      <path d="M265.92,393c4-1,7.3-3.29,10.92-5.31a223.09,223.09,0,0,0,49.5-37.87v0a219.76,219.76,0,0,0,64.77-156.07L390,171.82h0c-1.73-17.17-6-33.65-11.44-49.43-.7-2-1.08-4.52-2.52-5.13s-4.69.75-7.07,1.82a53.33,53.33,0,0,0-29.8,62.23h0a52.83,52.83,0,0,1-63.51,64.76h0v0a74.74,74.74,0,1,0-17.34,147.43A23.59,23.59,0,0,0,265.92,393Z" style="fill: url(#radial-gradient-2)"/>
      <path d="M254.27,2.68A193.86,193.86,0,0,0,220,0C62.15,3.61,0,108.37,0,231.49A221.9,221.9,0,0,0,30.77,344.54c4.23,7.84,9.89,6.09,19.41,6.09a25,25,0,0,0,21.76-37.34h0A105.4,105.4,0,0,1,163.66,156,101.63,101.63,0,0,1,206.55,165l.43.17.26.12A84.27,84.27,0,0,0,242.4,173c46.84,0,73.16-39.47,84.81-84.87,3.73-14.52,10.19-29.72,2.73-42.51-12.79-22-47.9-38.26-73.31-42.46Z" style="fill: url(#radial-gradient-3)"/>
    </g>
  </g>
</svg>
