<svg xmlns="http://www.w3.org/2000/svg" width="1036.83" height="215.17" viewBox="0 0 1036.83 215.17">
  <title>nile_typo_2</title>
  <g id="Layer_2" data-name="Layer 2">
    <g id="Layer_1-2" data-name="Layer 1">
      <g>
        <g>
          <path d="M34.54,191a4.22,4.22,0,0,1,.82,2.74c0,1.62-1,3-2.9,4.07a26.16,26.16,0,0,1-6,2.38,24.8,24.8,0,0,1-6.41.9q-9.24,0-14.63-5.32T0,181.22a22.23,22.23,0,0,1,2.35-10.4,17,17,0,0,1,6.61-7,18.7,18.7,0,0,1,9.66-2.51,17.33,17.33,0,0,1,9,2.27,15.4,15.4,0,0,1,6,6.42,21.24,21.24,0,0,1,2.11,9.78q0,3.36-3,3.36H9.62c.31,3.6,1.33,6.24,3.05,7.94s4.23,2.54,7.51,2.54A14.47,14.47,0,0,0,24.6,193a41.4,41.4,0,0,0,4.34-1.73A8.75,8.75,0,0,1,32.39,190,2.64,2.64,0,0,1,34.54,191ZM12.48,170.66a11.82,11.82,0,0,0-2.86,7.2H27.3c-.1-3.18-.89-5.6-2.35-7.24a7.74,7.74,0,0,0-6.1-2.46A8.37,8.37,0,0,0,12.48,170.66Z" style="fill: #fff"/>
          <path d="M98.68,165q3.33,3.72,3.33,12v19.24a4.42,4.42,0,0,1-1.37,3.48,5.16,5.16,0,0,1-3.56,1.21,5,5,0,0,1-3.48-1.21,4.42,4.42,0,0,1-1.37-3.48V177q0-4.31-1.53-6.14A5.66,5.66,0,0,0,86.05,169a7.64,7.64,0,0,0-6.1,2.62,10.58,10.58,0,0,0-2.27,7.16v17.44a4.42,4.42,0,0,1-1.37,3.48,5,5,0,0,1-3.48,1.21,5.19,5.19,0,0,1-3.52-1.21,4.34,4.34,0,0,1-1.41-3.48V177q0-4.31-1.52-6.14A5.7,5.7,0,0,0,61.72,169a7.53,7.53,0,0,0-6.06,2.62,10.67,10.67,0,0,0-2.23,7.16v17.44A4.34,4.34,0,0,1,52,199.72a5.19,5.19,0,0,1-3.52,1.21A5,5,0,0,1,45,199.72a4.42,4.42,0,0,1-1.37-3.48V166a4.15,4.15,0,0,1,1.41-3.37,5.32,5.32,0,0,1,3.52-1.17,4.88,4.88,0,0,1,3.32,1.13,4.1,4.1,0,0,1,1.29,3.25v1.88A12.21,12.21,0,0,1,58,162.92a14.13,14.13,0,0,1,6.92-1.65q8.59,0,11.5,7.2a12.86,12.86,0,0,1,5.08-5.24,14.85,14.85,0,0,1,7.59-2Q95.35,161.27,98.68,165Z" style="fill: #fff"/>
          <path d="M142.73,163.78a16.66,16.66,0,0,1,6,7.08,24.53,24.53,0,0,1,2.15,10.52,23.73,23.73,0,0,1-2.15,10.4,15.78,15.78,0,0,1-14.83,9.31,15.1,15.1,0,0,1-7.27-1.72,12.12,12.12,0,0,1-4.93-4.77v16a4,4,0,0,1-1.33,3.2,5.77,5.77,0,0,1-7.08-.07,4.26,4.26,0,0,1-1.37-3.29V166.05a4.49,4.49,0,0,1,1.29-3.37,4.8,4.8,0,0,1,3.48-1.25,4.93,4.93,0,0,1,3.52,1.25,4.41,4.41,0,0,1,1.33,3.37V168a12.08,12.08,0,0,1,5-5,15.32,15.32,0,0,1,7.39-1.76A15.89,15.89,0,0,1,142.73,163.78Zm-4.19,26.56c1.72-2.12,2.58-5.1,2.58-9s-.86-7-2.58-9.23a9.63,9.63,0,0,0-14.43-.08q-2.55,3.21-2.55,9.15t2.55,9.08a8.67,8.67,0,0,0,7.23,3.2A8.77,8.77,0,0,0,138.54,190.34Z" style="fill: #fff"/>
          <path d="M166.12,198.67a16.8,16.8,0,0,1-6.85-7,24.16,24.16,0,0,1,0-21.08,16.85,16.85,0,0,1,6.85-6.92,23,23,0,0,1,20.57,0,16.64,16.64,0,0,1,6.81,6.92,24.53,24.53,0,0,1,0,21.08,16.59,16.59,0,0,1-6.81,7,23.07,23.07,0,0,1-20.57,0Zm17.48-8.3q2.51-3.12,2.5-9.23c0-4-.83-7.08-2.5-9.19a9.8,9.8,0,0,0-14.43,0c-1.7,2.11-2.55,5.18-2.55,9.19s.84,7.15,2.51,9.23a8.67,8.67,0,0,0,7.19,3.13C179.51,193.5,181.93,192.46,183.6,190.37Z" style="fill: #fff"/>
          <path d="M256.63,162.21a4,4,0,0,1,2.3-.7,4.93,4.93,0,0,1,3.25,1.21,3.76,3.76,0,0,1,1.45,3,4,4,0,0,1-.39,1.8l-12.91,30.28a4.7,4.7,0,0,1-1.92,2.26,5.32,5.32,0,0,1-2.85.79,5.21,5.21,0,0,1-2.78-.79,4.7,4.7,0,0,1-1.92-2.26l-9.31-22.38-9,22.38a4.7,4.7,0,0,1-1.92,2.26,5.32,5.32,0,0,1-2.85.79,5.39,5.39,0,0,1-2.82-.79,4.62,4.62,0,0,1-2-2.26l-12.83-30.28a5,5,0,0,1-.39-1.72,3.87,3.87,0,0,1,1.57-3.09,5.28,5.28,0,0,1,3.44-1.29,4.36,4.36,0,0,1,2.42.7,4.3,4.3,0,0,1,1.65,2.12l9.23,23.86,9.46-23.63a4.76,4.76,0,0,1,1.8-2.23,4.89,4.89,0,0,1,5.17,0,4.76,4.76,0,0,1,1.8,2.23l9.54,23.7L255,164.32A4.37,4.37,0,0,1,256.63,162.21Z" style="fill: #fff"/>
          <path d="M302.08,191a4.28,4.28,0,0,1,.82,2.74c0,1.62-1,3-2.9,4.07a26.16,26.16,0,0,1-6,2.38,24.81,24.81,0,0,1-6.42.9q-9.22,0-14.62-5.32t-5.4-14.55a22.23,22.23,0,0,1,2.35-10.4,17,17,0,0,1,6.61-7,18.7,18.7,0,0,1,9.66-2.51,17.33,17.33,0,0,1,9,2.27,15.4,15.4,0,0,1,6,6.42,21.24,21.24,0,0,1,2.11,9.78q0,3.36-3,3.36H277.16c.31,3.6,1.33,6.24,3,7.94s4.23,2.54,7.51,2.54a14.47,14.47,0,0,0,4.42-.62,41.4,41.4,0,0,0,4.34-1.73,8.7,8.7,0,0,1,3.45-1.25A2.64,2.64,0,0,1,302.08,191ZM280,170.66a11.76,11.76,0,0,0-2.86,7.2h17.68c-.11-3.18-.89-5.6-2.35-7.24a7.74,7.74,0,0,0-6.1-2.46A8.37,8.37,0,0,0,280,170.66Z" style="fill: #fff"/>
          <path d="M335.75,162.29a3.81,3.81,0,0,1,1.18,3.05,4.26,4.26,0,0,1-1,3.13,6.27,6.27,0,0,1-3.68,1.33l-2.34.23q-4.62.48-6.77,3.13a10.21,10.21,0,0,0-2.15,6.65v16.43a4.34,4.34,0,0,1-1.41,3.48,5.19,5.19,0,0,1-3.52,1.21,5,5,0,0,1-3.48-1.21,4.38,4.38,0,0,1-1.37-3.48V166a4.19,4.19,0,0,1,1.37-3.37,5,5,0,0,1,3.4-1.17,4.75,4.75,0,0,1,3.29,1.13,4.18,4.18,0,0,1,1.25,3.25v3.13a11.56,11.56,0,0,1,4.42-5.32,13.47,13.47,0,0,1,6.53-2.11l1.1-.08A4.21,4.21,0,0,1,335.75,162.29Z" style="fill: #fff"/>
          <path d="M341.78,153a4.9,4.9,0,0,1-1.57-3.79,4.79,4.79,0,0,1,1.57-3.76,7,7,0,0,1,8.41,0,4.78,4.78,0,0,1,1.6,3.76,4.9,4.9,0,0,1-1.57,3.79,6.87,6.87,0,0,1-8.44,0Zm.74,46.7a4.42,4.42,0,0,1-1.37-3.48V166.05a4.31,4.31,0,0,1,1.37-3.45,5.16,5.16,0,0,1,3.48-1.17,5.32,5.32,0,0,1,3.52,1.17,4.24,4.24,0,0,1,1.41,3.45v30.19a4.34,4.34,0,0,1-1.41,3.48,5.19,5.19,0,0,1-3.52,1.21A5,5,0,0,1,342.52,199.72Z" style="fill: #fff"/>
          <path d="M393.48,165.18q3.38,3.91,3.37,11.82v19.24a4.56,4.56,0,0,1-1.29,3.44,4.88,4.88,0,0,1-3.56,1.25,5,5,0,0,1-3.6-1.25,4.48,4.48,0,0,1-1.33-3.44v-18.7q0-4.46-1.68-6.49t-5.28-2a8.93,8.93,0,0,0-6.77,2.66,9.88,9.88,0,0,0-2.54,7.12v17.44a4.51,4.51,0,0,1-1.33,3.44,5,5,0,0,1-3.6,1.25,4.88,4.88,0,0,1-3.56-1.25,4.56,4.56,0,0,1-1.29-3.44V166a4.3,4.3,0,0,1,1.33-3.29,5.05,5.05,0,0,1,3.6-1.25,4.65,4.65,0,0,1,3.32,1.21,4.16,4.16,0,0,1,1.29,3.17v2.11a13.24,13.24,0,0,1,5.25-4.93,15.84,15.84,0,0,1,7.43-1.72Q390.13,161.27,393.48,165.18Z" style="fill: #fff"/>
          <path d="M442.69,162.68a4.41,4.41,0,0,1,1.33,3.37V197q0,9-5,13.61t-14.78,4.61q-8.53,0-14.24-3.2-2.89-1.72-2.89-4.15a4.22,4.22,0,0,1,.82-2.74,2.61,2.61,0,0,1,2.15-1,5.34,5.34,0,0,1,1.72.36c.68.23,1.38.5,2.11.82A45.85,45.85,0,0,0,419,207a19.25,19.25,0,0,0,5.12.62q10.24,0,10.25-10v-5a12,12,0,0,1-5,5,15.68,15.68,0,0,1-7.51,1.76,16.17,16.17,0,0,1-14.94-9.07,21.62,21.62,0,0,1-2.19-9.94,22.22,22.22,0,0,1,2.15-10,16,16,0,0,1,6.06-6.73,16.8,16.8,0,0,1,8.92-2.39,15.68,15.68,0,0,1,7.51,1.76,12,12,0,0,1,5,5v-2a4.3,4.3,0,0,1,1.33-3.29,5.58,5.58,0,0,1,7,0Zm-11,26q2.63-3,2.62-8.37c0-3.6-.87-6.41-2.62-8.45a10.25,10.25,0,0,0-14.59,0c-1.77,2-2.66,4.85-2.66,8.45s.89,6.34,2.66,8.37a10.25,10.25,0,0,0,14.59,0Z" style="fill: #fff"/>
          <path d="M476.68,199.72a4.42,4.42,0,0,1-1.37-3.48v-46.7a4.29,4.29,0,0,1,1.37-3.44,5.11,5.11,0,0,1,3.48-1.18,5.27,5.27,0,0,1,3.52,1.18,4.22,4.22,0,0,1,1.41,3.44v46.7a4.34,4.34,0,0,1-1.41,3.48,5.19,5.19,0,0,1-3.52,1.21A5,5,0,0,1,476.68,199.72Z" style="fill: #fff"/>
          <path d="M502.34,198.67a16.8,16.8,0,0,1-6.85-7,24.16,24.16,0,0,1,0-21.08,16.85,16.85,0,0,1,6.85-6.92,23,23,0,0,1,20.57,0,16.58,16.58,0,0,1,6.81,6.92,24.53,24.53,0,0,1,0,21.08,16.53,16.53,0,0,1-6.81,7,23.07,23.07,0,0,1-20.57,0Zm17.48-8.3q2.5-3.12,2.5-9.23c0-4-.83-7.08-2.5-9.19a8.64,8.64,0,0,0-7.2-3.17,8.74,8.74,0,0,0-7.23,3.17c-1.7,2.11-2.54,5.18-2.54,9.19s.83,7.15,2.5,9.23a9.93,9.93,0,0,0,14.47,0Z" style="fill: #fff"/>
          <path d="M547.08,198.67a16.58,16.58,0,0,1-6.69-6.89,24,24,0,0,1,.12-20.92,17.44,17.44,0,0,1,6.93-7.08,20.53,20.53,0,0,1,10.24-2.51,22.91,22.91,0,0,1,6.14.86,20.45,20.45,0,0,1,5.44,2.35,4.85,4.85,0,0,1,2.5,4.15,4.37,4.37,0,0,1-.82,2.77,2.57,2.57,0,0,1-2.15,1.06,4.72,4.72,0,0,1-1.8-.39,14.87,14.87,0,0,1-1.87-.94,21,21,0,0,0-3.29-1.6,10.21,10.21,0,0,0-3.6-.59,9.16,9.16,0,0,0-7.47,3.17q-2.62,3.16-2.62,9.11t2.62,9a9.16,9.16,0,0,0,7.47,3.17,9.65,9.65,0,0,0,3.48-.59,29.56,29.56,0,0,0,3.41-1.61,15.38,15.38,0,0,1,2-1,4.41,4.41,0,0,1,1.72-.35,2.59,2.59,0,0,1,2.11,1.09,4.26,4.26,0,0,1,.86,2.74,4.4,4.4,0,0,1-.58,2.31,5.26,5.26,0,0,1-1.92,1.76,20.8,20.8,0,0,1-5.63,2.46,24.22,24.22,0,0,1-6.57.9A20.38,20.38,0,0,1,547.08,198.67Z" style="fill: #fff"/>
          <path d="M606.77,165.22q3.87,4,3.87,12v19.09a4.37,4.37,0,0,1-1.25,3.32,4.72,4.72,0,0,1-3.44,1.22,4.54,4.54,0,0,1-3.32-1.26,4.32,4.32,0,0,1-1.3-3.28V194.6a10.21,10.21,0,0,1-4.18,4.77,12.53,12.53,0,0,1-6.61,1.72,15.34,15.34,0,0,1-7-1.56,12.4,12.4,0,0,1-4.93-4.31,10.83,10.83,0,0,1-1.8-6.1,9.7,9.7,0,0,1,2.15-6.65c1.43-1.61,3.77-2.79,7-3.52a63.87,63.87,0,0,1,13.38-1.09h2v-1.8c0-2.56-.54-4.42-1.64-5.59s-2.87-1.77-5.32-1.77a17,17,0,0,0-4.61.67q-2.35.66-5.56,1.92a7.86,7.86,0,0,1-3,1,3,3,0,0,1-2.31-1,3.88,3.88,0,0,1-.9-2.66,4,4,0,0,1,.67-2.31,6.31,6.31,0,0,1,2.23-1.84,25.67,25.67,0,0,1,6.53-2.35,33.93,33.93,0,0,1,7.47-.86Q602.9,161.27,606.77,165.22Zm-7.9,26.21a9.49,9.49,0,0,0,2.46-6.77V183h-1.4a54.36,54.36,0,0,0-8.14.47,7.93,7.93,0,0,0-4.15,1.64,4.21,4.21,0,0,0-1.25,3.21,5.32,5.32,0,0,0,1.76,4.11,6.22,6.22,0,0,0,4.35,1.6A8.34,8.34,0,0,0,598.87,191.43Z" style="fill: #fff"/>
          <path d="M622,199.72a4.38,4.38,0,0,1-1.37-3.48v-46.7A4.26,4.26,0,0,1,622,146.1a5.11,5.11,0,0,1,3.48-1.18A5.27,5.27,0,0,1,629,146.1a4.22,4.22,0,0,1,1.41,3.44v46.7a4.34,4.34,0,0,1-1.41,3.48,5.19,5.19,0,0,1-3.52,1.21A5,5,0,0,1,622,199.72Z" style="fill: #fff"/>
          <path d="M694.07,191a4.22,4.22,0,0,1,.82,2.74c0,1.62-1,3-2.89,4.07a26.16,26.16,0,0,1-6,2.38,24.87,24.87,0,0,1-6.42.9q-9.22,0-14.63-5.32t-5.4-14.55a22.35,22.35,0,0,1,2.35-10.4,17.09,17.09,0,0,1,6.61-7,18.7,18.7,0,0,1,9.66-2.51,17.36,17.36,0,0,1,9,2.27,15.38,15.38,0,0,1,5.94,6.42,21.24,21.24,0,0,1,2.12,9.78q0,3.36-3,3.36H669.16c.31,3.6,1.33,6.24,3.05,7.94s4.22,2.54,7.51,2.54a14.47,14.47,0,0,0,4.42-.62,42.29,42.29,0,0,0,4.34-1.73,8.67,8.67,0,0,1,3.44-1.25A2.61,2.61,0,0,1,694.07,191ZM672,170.66a11.81,11.81,0,0,0-2.85,7.2h17.68c-.11-3.18-.89-5.6-2.35-7.24a7.74,7.74,0,0,0-6.1-2.46A8.4,8.4,0,0,0,672,170.66Z" style="fill: #fff"/>
          <path d="M710.11,198.67a16.52,16.52,0,0,1-6.69-6.89,23.91,23.91,0,0,1,.12-20.92,17.41,17.41,0,0,1,6.92-7.08,20.57,20.57,0,0,1,10.25-2.51,23,23,0,0,1,6.14.86,20.59,20.59,0,0,1,5.44,2.35,4.85,4.85,0,0,1,2.5,4.15,4.37,4.37,0,0,1-.82,2.77,2.59,2.59,0,0,1-2.15,1.06,4.64,4.64,0,0,1-1.8-.39,15,15,0,0,1-1.88-.94,20.55,20.55,0,0,0-3.29-1.6,10.2,10.2,0,0,0-3.59-.59,9.14,9.14,0,0,0-7.47,3.17q-2.62,3.16-2.62,9.11t2.62,9a9.14,9.14,0,0,0,7.47,3.17,9.69,9.69,0,0,0,3.48-.59,28.73,28.73,0,0,0,3.4-1.61,16,16,0,0,1,2-1,4.46,4.46,0,0,1,1.73-.35,2.6,2.6,0,0,1,2.11,1.09,4.31,4.31,0,0,1,.86,2.74,4.41,4.41,0,0,1-.59,2.31,5.26,5.26,0,0,1-1.92,1.76,20.53,20.53,0,0,1-5.63,2.46,24.22,24.22,0,0,1-6.57.9A20.31,20.31,0,0,1,710.11,198.67Z" style="fill: #fff"/>
          <path d="M748.52,198.67a16.8,16.8,0,0,1-6.85-7,24.16,24.16,0,0,1,0-21.08,16.85,16.85,0,0,1,6.85-6.92,23,23,0,0,1,20.57,0,16.58,16.58,0,0,1,6.81,6.92,24.53,24.53,0,0,1,0,21.08,16.53,16.53,0,0,1-6.81,7,23.07,23.07,0,0,1-20.57,0Zm17.48-8.3q2.5-3.12,2.51-9.23c0-4-.84-7.08-2.51-9.19a8.64,8.64,0,0,0-7.19-3.17,8.75,8.75,0,0,0-7.24,3.17c-1.7,2.11-2.54,5.18-2.54,9.19s.83,7.15,2.5,9.23a9.93,9.93,0,0,0,14.47,0Z" style="fill: #fff"/>
          <path d="M818.81,165.18q3.36,3.91,3.36,11.82v19.24a4.56,4.56,0,0,1-1.29,3.44,4.88,4.88,0,0,1-3.56,1.25,5,5,0,0,1-3.6-1.25,4.48,4.48,0,0,1-1.33-3.44v-18.7q0-4.46-1.68-6.49t-5.28-2a9,9,0,0,0-6.77,2.66,9.88,9.88,0,0,0-2.54,7.12v17.44a4.48,4.48,0,0,1-1.33,3.44,5,5,0,0,1-3.6,1.25,4.88,4.88,0,0,1-3.56-1.25,4.56,4.56,0,0,1-1.29-3.44V166a4.3,4.3,0,0,1,1.33-3.29,5.07,5.07,0,0,1,3.6-1.25,4.63,4.63,0,0,1,3.32,1.21,4.13,4.13,0,0,1,1.3,3.17v2.11a13.21,13.21,0,0,1,5.24-4.93,15.84,15.84,0,0,1,7.43-1.72Q815.45,161.27,818.81,165.18Z" style="fill: #fff"/>
          <path d="M839.26,198.67a16.78,16.78,0,0,1-6.84-7,24.07,24.07,0,0,1,0-21.08,16.83,16.83,0,0,1,6.84-6.92,23,23,0,0,1,20.58,0,16.62,16.62,0,0,1,6.8,6.92,24.44,24.44,0,0,1,0,21.08,16.57,16.57,0,0,1-6.8,7,23.09,23.09,0,0,1-20.58,0Zm17.49-8.3q2.5-3.12,2.5-9.23c0-4-.83-7.08-2.5-9.19a8.64,8.64,0,0,0-7.2-3.17,8.76,8.76,0,0,0-7.24,3.17c-1.69,2.11-2.54,5.18-2.54,9.19s.83,7.15,2.5,9.23a8.67,8.67,0,0,0,7.2,3.13A8.77,8.77,0,0,0,856.75,190.37Z" style="fill: #fff"/>
          <path d="M932.12,165q3.33,3.72,3.32,12v19.24a4.38,4.38,0,0,1-1.37,3.48,5.15,5.15,0,0,1-3.55,1.21,5.08,5.08,0,0,1-3.49-1.21,4.42,4.42,0,0,1-1.37-3.48V177c0-2.87-.5-4.92-1.52-6.14a5.69,5.69,0,0,0-4.65-1.84,7.67,7.67,0,0,0-6.11,2.62,10.58,10.58,0,0,0-2.27,7.16v17.44a4.41,4.41,0,0,1-1.36,3.48,5.08,5.08,0,0,1-3.49,1.21,5.21,5.21,0,0,1-3.52-1.21,4.37,4.37,0,0,1-1.4-3.48V177q0-4.31-1.53-6.14a5.69,5.69,0,0,0-4.65-1.84,7.55,7.55,0,0,0-6.07,2.62,10.73,10.73,0,0,0-2.23,7.16v17.44a4.37,4.37,0,0,1-1.4,3.48,5.21,5.21,0,0,1-3.52,1.21,5.08,5.08,0,0,1-3.49-1.21,4.42,4.42,0,0,1-1.37-3.48V166a4.15,4.15,0,0,1,1.41-3.37,5.34,5.34,0,0,1,3.52-1.17,4.89,4.89,0,0,1,3.33,1.13,4.1,4.1,0,0,1,1.29,3.25v1.88a12.18,12.18,0,0,1,4.81-4.77,14.16,14.16,0,0,1,6.92-1.65q8.61,0,11.5,7.2a12.89,12.89,0,0,1,5.09-5.24,14.85,14.85,0,0,1,7.59-2Q928.8,161.27,932.12,165Z" style="fill: #fff"/>
          <path d="M946,153a4.92,4.92,0,0,1-1.56-3.79,4.82,4.82,0,0,1,1.56-3.76,7,7,0,0,1,8.41,0,4.76,4.76,0,0,1,1.61,3.76,4.9,4.9,0,0,1-1.57,3.79,6.88,6.88,0,0,1-8.45,0Zm.75,46.7a4.38,4.38,0,0,1-1.37-3.48V166.05a4.28,4.28,0,0,1,1.37-3.45,5.16,5.16,0,0,1,3.48-1.17,5.32,5.32,0,0,1,3.52,1.17,4.24,4.24,0,0,1,1.41,3.45v30.19a4.34,4.34,0,0,1-1.41,3.48,5.19,5.19,0,0,1-3.52,1.21A5,5,0,0,1,946.75,199.72Z" style="fill: #fff"/>
          <path d="M997.67,191a4.22,4.22,0,0,1,.82,2.74c0,1.62-1,3-2.89,4.07a26.16,26.16,0,0,1-6,2.38,24.87,24.87,0,0,1-6.42.9q-9.23,0-14.63-5.32t-5.39-14.55a22.35,22.35,0,0,1,2.34-10.4,17.09,17.09,0,0,1,6.61-7,18.73,18.73,0,0,1,9.66-2.51,17.36,17.36,0,0,1,9,2.27,15.46,15.46,0,0,1,6,6.42,21.37,21.37,0,0,1,2.11,9.78q0,3.36-3,3.36H972.76c.31,3.6,1.33,6.24,3,7.94s4.22,2.54,7.51,2.54a14.47,14.47,0,0,0,4.42-.62,42.29,42.29,0,0,0,4.34-1.73,8.67,8.67,0,0,1,3.44-1.25A2.61,2.61,0,0,1,997.67,191Zm-22.06-20.34a11.81,11.81,0,0,0-2.85,7.2h17.68c-.11-3.18-.89-5.6-2.35-7.24a7.74,7.74,0,0,0-6.1-2.46A8.4,8.4,0,0,0,975.61,170.66Z" style="fill: #fff"/>
          <path d="M1006.86,197.73a4.66,4.66,0,0,1-2.5-4.23,3.72,3.72,0,0,1,.86-2.54,2.71,2.71,0,0,1,2.11-1,8.67,8.67,0,0,1,3.68,1.25,32.06,32.06,0,0,0,4.58,1.8,18.5,18.5,0,0,0,5.28.63,9.93,9.93,0,0,0,5.12-1.1,3.38,3.38,0,0,0,1.84-3.05,3,3,0,0,0-.74-2.11,7,7,0,0,0-2.66-1.45,56.17,56.17,0,0,0-5.83-1.52q-7-1.41-10-4a8.9,8.9,0,0,1-3-7.12,10.26,10.26,0,0,1,2-6.22,13.18,13.18,0,0,1,5.59-4.3,20.31,20.31,0,0,1,8.1-1.53,24.52,24.52,0,0,1,6.33.82,19.41,19.41,0,0,1,5.48,2.39,4.72,4.72,0,0,1,2.5,4.15,4,4,0,0,1-.86,2.62,2.63,2.63,0,0,1-2.11,1.05A4.08,4.08,0,0,1,1031,172c-.55-.23-1.24-.59-2.08-1a31,31,0,0,0-3.91-1.76,11.93,11.93,0,0,0-4.06-.59,7.9,7.9,0,0,0-4.58,1.17,3.71,3.71,0,0,0-1.68,3.21,3.24,3.24,0,0,0,1.72,3,24.45,24.45,0,0,0,6.65,2,37.88,37.88,0,0,1,8.21,2.5,9.7,9.7,0,0,1,4.27,3.52,10.23,10.23,0,0,1,1.29,5.4,10,10,0,0,1-4.42,8.52q-4.42,3.21-11.78,3.21Q1012.11,201.09,1006.86,197.73Z" style="fill: #fff"/>
        </g>
        <g>
          <path d="M89.55,3.26a11.67,11.67,0,0,1,3.11,8.4V96.59a11.88,11.88,0,0,1-3.11,8.56,10.68,10.68,0,0,1-8.1,3.25,11,11,0,0,1-8.78-3.93L22,39.52V96.59A12.24,12.24,0,0,1,19,105.15a10.2,10.2,0,0,1-7.95,3.25,10.43,10.43,0,0,1-8-3.25,12.05,12.05,0,0,1-3-8.56V11.66a11.67,11.67,0,0,1,3.1-8.4A10.69,10.69,0,0,1,11.2,0a10.23,10.23,0,0,1,8.63,3.94L70.55,68.43V11.66a11.84,11.84,0,0,1,3-8.4A10.26,10.26,0,0,1,81.45,0,10.69,10.69,0,0,1,89.55,3.26Z" style="fill: #fff"/>
          <path d="M136,105.22a11.65,11.65,0,0,1-3.18-8.63V11.66A11.47,11.47,0,0,1,136,3.18a13.3,13.3,0,0,1,17.26,0,11.47,11.47,0,0,1,3.18,8.48V96.59A12.22,12.22,0,0,1,136,105.22Z" style="fill: #fff"/>
          <path d="M199.39,104.62c-1.92-1.92-2.87-4.64-2.87-8.18V11.66a11.47,11.47,0,0,1,3.18-8.48,13.29,13.29,0,0,1,17.25,0,11.47,11.47,0,0,1,3.18,8.48V88.27h38.76q11.06,0,11.05,9.69,0,9.53-11.05,9.53H207.57C204,107.49,201.31,106.54,199.39,104.62Z" style="fill: #fff"/>
          <path d="M303.55,104.62c-1.92-1.92-2.87-4.64-2.87-8.18V11.81c0-3.53.95-6.26,2.87-8.18S308.19.76,311.73.76h53.59q11.21,0,11.21,9.08,0,9.24-11.21,9.24H323.69v25H362.3q11.19,0,11.2,9.23t-11.2,9.09H323.69V89.17h41.63q11.21,0,11.21,9.24t-11.21,9.08H311.73C308.19,107.49,305.47,106.54,303.55,104.62Z" style="fill: #fff"/>
        </g>
      </g>
    </g>
  </g>
</svg>
