<?xml version="1.0" encoding="utf-8"?>
<!-- Generator: Adobe Illustrator 23.0.2, SVG Export Plug-In . SVG Version: 6.00 Build 0)  -->
<svg version="1.1" id="Layer_1" xmlns="http://www.w3.org/2000/svg" xmlns:xlink="http://www.w3.org/1999/xlink" x="0px" y="0px"
	 viewBox="0 0 197.1 199" style="enable-background:new 0 0 197.1 199;" xml:space="preserve">
<style type="text/css">
	.st0{fill:#F4F0D4;}
	.st1{fill:#E7E3C8;}
	.st2{fill:#EFC75D;}
	.st3{fill:#E3BD5A;}
	.st4{fill:#E2584D;}
	.st5{fill:#FFFFFF;}
	.st6{fill:#E6B078;}
	.st7{fill:#717588;}
	.st8{fill:#D29B6E;}
	.st9{fill:#EFC087;}
	.st10{fill:#5C5E6F;}
	.st11{fill:#525363;}
	.st12{fill:#795651;}
	.st13{fill:#6A4C4C;}
	.st14{fill:#5B4247;}
	.st15{enable-background:new    ;}
	.st16{fill:#2E2E2E;}
</style>
<title>supplier</title>
<g>
	<g id="Layer_1-2">
		<g>
			<g>
				<path class="st0" d="M154.1,168.8c8.5,3.7,31.9,14.3,40.2,17.7c0.9,0.5,3.1,0.3,2.8-1.7c-1.9-20-13.1-134.8-15.1-155.1
					c-0.3-2.9-1.2-3.4-3.4-4.2c-6.6-2.5-22.6-8.2-29.3-10.5c-1.9-0.9-4.2-0.9-6.2,0c-10.3,2.9-43,12.9-43,12.9s-34-10.3-44.7-13.2
					c-2-0.9-4.2-0.8-6.2,0.1C42.5,17.1,26.8,23,20,25.4c-2.8,1.1-3.1,2.3-3.4,4.2C14.5,49.5,2.2,164.7,0,184.9
					c-0.2,2.3,1.9,2.2,3.7,1.5c9.2-3.7,32.7-13.9,41-17.2c1.9-1,4.2-1,6.2,0c9.4,3.9,37,16.3,46.1,20c1.9,1,4.2,1,6.2,0
					c9.1-3.9,35.7-16.2,44.7-20.2C149.7,168,152,168,154.1,168.8z"/>
				<path class="st1" d="M53.5,14.3c-1.4-0.1-2.8,0.1-4.2,0.6C42.5,17.1,26.8,23,20,25.4c-2.8,1.1-3.1,2.3-3.4,4.2
					C14.5,49.5,2.2,164.7,0,184.9c-0.2,2.3,1.9,2.2,3.7,1.5c9.2-3.7,32.7-13.9,41-17.2c1.2-0.6,2.6-0.8,4-0.6L53.5,14.3z
					 M145.5,14.3c-0.7,0.2-1.3,0.4-2,0.6C133.1,18,101.7,27.6,100.3,28v161.8c1.1-0.1,2.1-0.3,3.1-0.8c9.1-3.9,35.7-16.2,44.7-20.2
					c0.7-0.3,1.4-0.5,2.2-0.6L145.5,14.3z"/>
				<path class="st2" d="M72,178.2l27-27l27.4,27.4c5.7-2.6,11.2-5.2,15.7-7.2L43.6,73.2l47.8-47.8C86.4,23.9,80,22,73.8,20.2
					L32.2,61.8L15.1,44.7c-0.6,5.8-1.4,12.9-2.2,20.8L87.5,140l-31.3,31.3C60.6,173.2,66.2,175.6,72,178.2L72,178.2z"/>
				<path class="st3" d="M51.9,64.9l0.8-23.6L32.2,61.6L15.1,44.7c-0.6,5.8-1.4,12.9-2.2,20.8l37.9,37.9L51.5,81l-7.7-7.7L51.9,64.9
					z M100.1,152.7l26,26c5.7-2.6,11.2-5.2,15.7-7.2l-41.8-41.8L100.1,152.7z"/>
				<g>
					<path class="st4" d="M147.7,119.2c8.5,0,15.4,6.9,15.4,15.5c0,0,0,0,0,0c0,2.4-0.5,4.8-1.4,7c-3.1,7.3-10.7,15-13.2,17.5
						c-0.6,0.6-0.9,0.7-1.7-0.1c-2.6-2.5-10-10.1-13.1-17.3c-1.1-2.1-1.4-6.7-1.4-7.1C132.3,126.1,139.2,119.2,147.7,119.2
						C147.7,119.2,147.7,119.2,147.7,119.2z"/>
					<path class="st5" d="M147.7,126.6c-4.4,0-8,3.6-8,8c0,4.4,3.6,8,8,8s8-3.6,8-8S152.2,126.6,147.7,126.6
						C147.7,126.6,147.7,126.6,147.7,126.6z M147.7,139.4c-2.6,0-4.8-2.1-4.8-4.8s2.1-4.8,4.8-4.8s4.8,2.1,4.8,4.8l0,0
						C152.5,137.2,150.4,139.3,147.7,139.4C147.8,139.4,147.7,139.4,147.7,139.4z"/>
				</g>
				<g>
					<path class="st4" d="M26.5,0C35,0,41.9,6.9,41.9,15.5c0,0,0,0,0,0c0,2.4-0.5,4.8-1.4,7c-3.1,7.3-10.7,15-13.2,17.5
						c-0.6,0.6-0.9,0.7-1.7,0c-2.5-2.5-10-10.1-13.1-17.3c-1.1-2.1-1.4-6.7-1.4-7.1C11,7,17.8,0.1,26.4,0C26.4,0,26.4,0,26.5,0z"/>
					<path class="st5" d="M26.5,7.4c-4.4,0-8,3.6-8,8s3.6,8,8,8s8-3.6,8-8S30.9,7.4,26.5,7.4L26.5,7.4z M26.5,20.2
						c-2.6,0-4.8-2.1-4.8-4.8c0-2.6,2.1-4.8,4.8-4.8s4.8,2.1,4.8,4.8c0,0,0,0,0,0C31.3,18,29.1,20.2,26.5,20.2
						C26.5,20.2,26.5,20.2,26.5,20.2z"/>
				</g>
			</g>
			<g>
				<polygon class="st6" points="114.2,144.1 114.2,135.7 92.5,135.7 92.5,144.1 103.3,153.7 				"/>
				<path class="st7" d="M130.9,148l-14.9-3.5c-0.2-0.1-0.4-0.1-0.6-0.2l-12.1,7l-11.6-7.4c-0.3,0.3-0.7,0.5-1.1,0.6L75.8,148
					c-2.2,0.5-3.7,2.4-3.7,4.7v9.4c0,1.3,1.1,2.4,2.4,2.4c0,0,0,0,0,0h57.7c1.3,0,2.4-1.1,2.4-2.4c0,0,0,0,0,0v-9.4
					C134.6,150.4,133.1,148.5,130.9,148z"/>
				<path class="st8" d="M92.5,135.7v8.9c13.6,4.9,21.6-7.4,21.6-7.4v-1.5H92.5z"/>
				<path class="st9" d="M87.7,108l1,23c0.1,2.2,1.2,4.1,2.9,5.4l5,3.7c1.3,0.9,2.8,1.4,4.3,1.4h4.8c1.6,0,3.1-0.5,4.3-1.4l5-3.7
					c1.7-1.3,2.8-3.3,2.9-5.4l1-23H87.7z"/>
				<path class="st6" d="M99.8,112.8c4.8,0,12-1.2,13.7-4.8H87.7l1,23c0.1,2.2,1.1,4.1,2.9,5.4l5,3.7c1.3,0.9,2.8,1.4,4.3,1.4h2.4
					c-2.4,0-7.2-4.8-7.2-10.8v-14.4C96.2,114.5,97.8,112.9,99.8,112.8z"/>
				<g>
					<path class="st10" d="M125.8,156.7l7.8-7c0.7,0.9,1,1.9,1,3v9.4c0,1.3-1.1,2.4-2.4,2.4h-8.4v-3.3
						C123.7,159.5,124.5,157.8,125.8,156.7z"/>
					<path class="st10" d="M80.9,156.7l-7.8-7c-0.7,0.9-1,1.9-1,3v9.4c0,1.3,1.1,2.4,2.4,2.4h8.4v-3.3
						C82.9,159.5,82.2,157.8,80.9,156.7z"/>
					<polygon class="st10" points="106.4,164.5 100.3,164.5 101.1,153.7 105.6,153.7 					"/>
				</g>
				<path class="st11" d="M106.4,151.3h-6v0.7c0,1.6,1.3,2.9,2.9,2.9h0h0.2c1.6,0,2.9-1.3,2.9-2.9L106.4,151.3L106.4,151.3z"/>
				<g>
					<path class="st10" d="M92.4,141.4l11,9.9c-2.4,1.3-4.8,2.9-6.9,4.7c-0.7,0.5-1.6,0.5-2.2-0.2c-0.1-0.1-0.2-0.2-0.2-0.3
						l-5.2-11.4l1.6-2.4c0.4-0.6,1.1-0.7,1.7-0.4C92.3,141.3,92.3,141.4,92.4,141.4z"/>
					<path class="st10" d="M114.3,141.4l-11,9.9c2.4,1.3,4.7,2.9,6.9,4.7c0.6,0.5,1.6,0.5,2.2-0.2c0.1-0.1,0.2-0.2,0.2-0.4l5.2-11.4
						l-1.6-2.4c-0.4-0.5-1.1-0.7-1.7-0.3C114.4,141.3,114.4,141.4,114.3,141.4z"/>
				</g>
				<path class="st12" d="M110.6,100.1l1.1,8c5.2,1,5.9,9.1,6,11.4c0,0.4,0.1,0.8,0.4,1.2l2,3c0,0-0.7-5,2.4-8.4
					C122.5,115.2,123.6,95.2,110.6,100.1z"/>
				<path class="st9" d="M121.3,123.1l-1.3,5.4c-0.2,0.6-0.7,1.1-1.4,1.1l0,0c-0.7,0-1.3-0.5-1.4-1.3l-0.7-5.6
					c-0.2-1.4,0.8-2.6,2.2-2.8c0.1,0,0.2,0,0.3,0l0,0c1.4,0,2.5,1.1,2.4,2.5C121.4,122.7,121.3,122.9,121.3,123.1z"/>
				<path class="st13" d="M88.9,97.9l1.8,1.2c-8,5.9-6.5,16.1-6.5,16.1c2.4,2.4,2.4,8.4,2.4,8.4l2.4-2.4c0,0-0.9-6.9,3.6-9.6
					c4.2-2.5,7.9-1.2,11.6-1.2c10.1,0,12.9-3.8,12.4-8.4c-0.2-2.4-3.9-7.4-13.2-7.2C99.6,94.9,92.5,96,88.9,97.9z"/>
				<path class="st14" d="M88.2,109.4c-0.6-3.6,0.3-7.3,2.5-10.2c-8,5.9-6.5,16.1-6.5,16.1c2.4,2.4,2.4,8.4,2.4,8.4l2.4-2.4
					c0,0-0.9-6.9,3.6-9.6c4.2-2.5,7.9-1.2,11.6-1.2c1.4,0,2.9-0.1,4.3-0.3C100.8,110.4,96.2,104.5,88.2,109.4z"/>
				<path class="st6" d="M85.4,123.1l1.4,5.4c0.2,0.6,0.7,1.1,1.4,1.1l0,0c0.7,0,1.3-0.5,1.4-1.3l0.7-5.6c0.2-1.4-0.8-2.6-2.1-2.8
					c-0.1,0-0.2,0-0.3,0l0,0c-1.4,0-2.5,1.1-2.5,2.5C85.3,122.7,85.3,122.9,85.4,123.1z"/>
				<path class="st10" d="M117.8,162.1h-6c-1.3,0-2.4,1.1-2.4,2.4h10.8C120.2,163.2,119.1,162.1,117.8,162.1
					C117.8,162.1,117.8,162.1,117.8,162.1z"/>
			</g>
			<path class="st5" d="M50.1,162H155c2.2,0,4,1.8,4,4V195c0,2.2-1.8,4-4,4H50.1c-2.2,0-4-1.8-4-4v-28.9C46,163.8,47.9,162,50.1,162
				z"/>
			<g class="st15">
				<path class="st16" d="M68.1,188.6c-0.9-0.3-1.7-0.6-2.2-1.1c-0.3-0.2-0.5-0.5-0.5-1c0-0.3,0.1-0.5,0.2-0.7
					c0.2-0.2,0.4-0.3,0.6-0.3c0.2,0,0.5,0.1,0.8,0.3c0.6,0.4,1.2,0.7,1.8,0.9c0.6,0.2,1.3,0.3,2.1,0.3c1,0,1.7-0.2,2.2-0.5
					c0.5-0.3,0.8-0.8,0.8-1.5c0-0.5-0.2-0.9-0.7-1.2s-1.3-0.5-2.4-0.8c-1.2-0.3-2.1-0.5-2.9-0.9s-1.3-0.8-1.7-1.3
					c-0.4-0.5-0.6-1.2-0.6-2c0-0.8,0.2-1.6,0.7-2.2s1.1-1.2,2-1.5c0.8-0.4,1.8-0.5,2.8-0.5c1.9,0,3.5,0.5,4.7,1.5
					c0.2,0.1,0.3,0.3,0.4,0.4s0.1,0.3,0.1,0.5c0,0.3-0.1,0.5-0.2,0.7c-0.2,0.2-0.4,0.3-0.6,0.3c-0.1,0-0.3,0-0.4-0.1
					s-0.3-0.1-0.4-0.2c-0.5-0.4-1.1-0.7-1.6-0.9c-0.5-0.2-1.1-0.3-1.9-0.3c-0.9,0-1.6,0.2-2.1,0.5c-0.5,0.4-0.8,0.9-0.8,1.5
					c0,0.5,0.2,1,0.7,1.3s1.3,0.6,2.4,0.8c1.2,0.3,2.1,0.6,2.9,0.9c0.7,0.3,1.3,0.7,1.7,1.2c0.4,0.5,0.6,1.1,0.6,1.9
					c0,0.8-0.2,1.6-0.7,2.2c-0.5,0.6-1.1,1.1-1.9,1.5C73,188.8,72,189,71,189C69.9,189,69,188.9,68.1,188.6z"/>
				<path class="st16" d="M87.3,179.2c0.2,0.2,0.3,0.5,0.3,0.9v7.8c0,0.3-0.1,0.6-0.3,0.8c-0.2,0.2-0.5,0.3-0.9,0.3
					c-0.4,0-0.6-0.1-0.9-0.3c-0.2-0.2-0.3-0.5-0.3-0.8v-0.5c-0.3,0.5-0.7,0.9-1.2,1.2c-0.5,0.3-1.1,0.4-1.8,0.4
					c-2.4,0-3.6-1.3-3.6-4V180c0-0.4,0.1-0.6,0.3-0.9c0.2-0.2,0.5-0.3,0.9-0.3c0.4,0,0.7,0.1,0.9,0.3c0.2,0.2,0.3,0.5,0.3,0.9v4.9
					c0,0.7,0.1,1.2,0.4,1.5c0.3,0.3,0.7,0.5,1.3,0.5c0.7,0,1.2-0.2,1.7-0.7s0.6-1.1,0.6-1.8V180c0-0.4,0.1-0.6,0.3-0.9
					c0.2-0.2,0.5-0.3,0.9-0.3C86.7,178.8,87,178.9,87.3,179.2z"/>
				<path class="st16" d="M98.1,179.4c0.7,0.4,1.2,1,1.5,1.8c0.4,0.8,0.5,1.7,0.5,2.7s-0.2,1.9-0.5,2.7c-0.4,0.8-0.9,1.3-1.5,1.8
					c-0.7,0.4-1.4,0.6-2.3,0.6c-0.7,0-1.3-0.1-1.9-0.4c-0.5-0.3-1-0.7-1.3-1.2v4.1c0,0.3-0.1,0.6-0.3,0.8c-0.2,0.2-0.5,0.3-0.9,0.3
					c-0.4,0-0.7-0.1-0.9-0.3s-0.4-0.5-0.4-0.8V180c0-0.4,0.1-0.6,0.3-0.9c0.2-0.2,0.5-0.3,0.9-0.3c0.4,0,0.7,0.1,0.9,0.3
					c0.2,0.2,0.3,0.5,0.3,0.9v0.5c0.3-0.5,0.7-1,1.3-1.3c0.6-0.3,1.2-0.4,1.9-0.4C96.7,178.8,97.4,179,98.1,179.4z M97,186.2
					c0.4-0.5,0.7-1.3,0.7-2.3c0-1-0.2-1.8-0.7-2.4c-0.4-0.6-1.1-0.8-1.8-0.8c-0.8,0-1.4,0.3-1.8,0.8c-0.4,0.5-0.7,1.3-0.7,2.3
					c0,1,0.2,1.8,0.7,2.3c0.4,0.5,1,0.8,1.8,0.8C95.9,187,96.6,186.8,97,186.2z"/>
				<path class="st16" d="M110.1,179.4c0.7,0.4,1.2,1,1.5,1.8c0.4,0.8,0.5,1.7,0.5,2.7s-0.2,1.9-0.5,2.7c-0.4,0.8-0.9,1.3-1.5,1.8
					c-0.7,0.4-1.4,0.6-2.3,0.6c-0.7,0-1.3-0.1-1.9-0.4c-0.5-0.3-1-0.7-1.3-1.2v4.1c0,0.3-0.1,0.6-0.3,0.8c-0.2,0.2-0.5,0.3-0.9,0.3
					c-0.4,0-0.7-0.1-0.9-0.3s-0.4-0.5-0.4-0.8V180c0-0.4,0.1-0.6,0.3-0.9c0.2-0.2,0.5-0.3,0.9-0.3c0.4,0,0.7,0.1,0.9,0.3
					c0.2,0.2,0.3,0.5,0.3,0.9v0.5c0.3-0.5,0.7-1,1.3-1.3c0.6-0.3,1.2-0.4,1.9-0.4C108.7,178.8,109.4,179,110.1,179.4z M109,186.2
					c0.4-0.5,0.7-1.3,0.7-2.3c0-1-0.2-1.8-0.7-2.4c-0.4-0.6-1.1-0.8-1.8-0.8c-0.8,0-1.4,0.3-1.8,0.8s-0.7,1.3-0.7,2.3
					c0,1,0.2,1.8,0.7,2.3s1,0.8,1.8,0.8C108,187,108.6,186.8,109,186.2z"/>
				<path class="st16" d="M114.6,188.6c-0.2-0.2-0.3-0.5-0.3-0.9v-11.9c0-0.4,0.1-0.7,0.3-0.9c0.2-0.2,0.5-0.3,0.9-0.3
					c0.4,0,0.7,0.1,0.9,0.3c0.2,0.2,0.4,0.5,0.4,0.9v11.9c0,0.4-0.1,0.7-0.4,0.9c-0.2,0.2-0.5,0.3-0.9,0.3
					C115.1,188.9,114.8,188.8,114.6,188.6z"/>
				<path class="st16" d="M119.5,176.7c-0.3-0.2-0.4-0.6-0.4-1c0-0.4,0.1-0.7,0.4-1c0.3-0.2,0.6-0.4,1.1-0.4c0.4,0,0.8,0.1,1.1,0.4
					c0.3,0.2,0.4,0.6,0.4,1c0,0.4-0.1,0.7-0.4,1c-0.3,0.2-0.6,0.4-1.1,0.4C120.1,177.1,119.7,176.9,119.5,176.7z M119.7,188.6
					c-0.2-0.2-0.3-0.5-0.3-0.9V180c0-0.4,0.1-0.7,0.3-0.9c0.2-0.2,0.5-0.3,0.9-0.3c0.4,0,0.7,0.1,0.9,0.3c0.2,0.2,0.4,0.5,0.4,0.9
					v7.7c0,0.4-0.1,0.7-0.4,0.9c-0.2,0.2-0.5,0.3-0.9,0.3C120.2,188.9,119.9,188.8,119.7,188.6z"/>
				<path class="st16" d="M132.7,186.4c0.1,0.2,0.2,0.4,0.2,0.7c0,0.4-0.2,0.8-0.7,1c-0.5,0.3-1,0.5-1.5,0.6
					c-0.6,0.2-1.1,0.2-1.6,0.2c-1.6,0-2.8-0.5-3.7-1.4c-0.9-0.9-1.4-2.1-1.4-3.7c0-1,0.2-1.9,0.6-2.7c0.4-0.8,1-1.4,1.7-1.8
					s1.5-0.6,2.5-0.6c0.9,0,1.6,0.2,2.3,0.6c0.7,0.4,1.2,0.9,1.5,1.6s0.5,1.5,0.5,2.5c0,0.6-0.3,0.9-0.8,0.9h-5.9
					c0.1,0.9,0.3,1.6,0.8,2c0.4,0.4,1.1,0.7,1.9,0.7c0.4,0,0.8-0.1,1.1-0.2c0.3-0.1,0.7-0.3,1.1-0.4c0.4-0.2,0.7-0.3,0.9-0.3
					C132.4,186.1,132.5,186.2,132.7,186.4z M127,181.2c-0.4,0.4-0.7,1-0.7,1.8h4.5c0-0.8-0.2-1.4-0.6-1.8s-0.9-0.6-1.6-0.6
					C128,180.6,127.5,180.8,127,181.2z"/>
				<path class="st16" d="M141.3,179.1c0.2,0.2,0.3,0.4,0.3,0.8c0,0.4-0.1,0.6-0.3,0.8c-0.2,0.2-0.5,0.3-0.9,0.3l-0.6,0.1
					c-0.8,0.1-1.4,0.3-1.7,0.8c-0.4,0.5-0.6,1-0.6,1.7v4.2c0,0.4-0.1,0.7-0.4,0.9c-0.2,0.2-0.5,0.3-0.9,0.3c-0.4,0-0.7-0.1-0.9-0.3
					c-0.2-0.2-0.4-0.5-0.4-0.9V180c0-0.4,0.1-0.7,0.4-0.9c0.2-0.2,0.5-0.3,0.9-0.3s0.6,0.1,0.8,0.3c0.2,0.2,0.3,0.5,0.3,0.8v0.8
					c0.3-0.6,0.6-1,1.1-1.4s1.1-0.5,1.7-0.5l0.3,0C140.8,178.8,141.1,178.9,141.3,179.1z"/>
			</g>
		</g>
	</g>
</g>
</svg>
