<svg xmlns="http://www.w3.org/2000/svg" width="197.07" height="199.04" viewBox="0 0 197.07 199.04">
  <title>supplier</title>
  <g id="Layer_2" data-name="Layer 2">
    <g id="Layer_1-2" data-name="Layer 1">
      <g>
        <g>
          <path d="M154.06,168.84c8.47,3.7,31.88,14.33,40.2,17.71.93.47,3.08.31,2.78-1.69-1.85-20-13.1-134.79-15.1-155.13-.31-2.92-1.23-3.39-3.39-4.16-6.62-2.46-22.65-8.16-29.27-10.47a7.15,7.15,0,0,0-6.16,0C132.8,18,100.14,28,100.14,28s-34-10.32-44.67-13.25a7.26,7.26,0,0,0-6.17.15C42.53,17.1,26.81,23,20,25.42c-2.77,1.08-3.08,2.31-3.38,4.16C14.49,49.45,2.17,164.68,0,184.86c-.16,2.31,1.85,2.16,3.7,1.54,9.24-3.7,32.65-13.86,41-17.25a6.58,6.58,0,0,1,6.16,0c9.4,3.85,37,16.33,46.06,20a6.68,6.68,0,0,0,6.17,0c9.09-3.85,35.74-16.17,44.67-20.18A7.52,7.52,0,0,1,154.06,168.84Z" style="fill: #f4f0d4"/>
          <path d="M53.46,14.33a8.54,8.54,0,0,0-4.16.61C42.53,17.1,26.81,23,20,25.42c-2.77,1.08-3.08,2.31-3.38,4.16C14.49,49.45,2.17,164.68,0,184.86c-.16,2.31,1.85,2.16,3.7,1.54,9.24-3.7,32.65-13.86,41-17.25a6.65,6.65,0,0,1,4-.62Zm92,0a14.57,14.57,0,0,0-2,.61C133.11,18,101.68,27.58,100.29,28V189.79a8.2,8.2,0,0,0,3.08-.77c9.09-3.85,35.74-16.18,44.68-20.18a9,9,0,0,1,2.16-.62Z" style="fill: #e7e3c8"/>
          <path d="M72,178.24l27-27,27.42,27.42c5.7-2.62,11.24-5.24,15.71-7.24L43.6,73.18,91.36,25.42C86.43,23.88,80,22,73.8,20.18L32.2,61.78,15.11,44.68c-.62,5.85-1.39,12.94-2.16,20.79L87.51,140,56.24,171.3c4.31,1.85,10,4.32,15.71,6.94Z" style="fill: #efc75d"/>
          <path d="M51.92,64.86l.77-23.57L32.2,61.62,15.11,44.68c-.62,5.85-1.39,12.94-2.16,20.79l37.89,37.9L51.46,81l-7.7-7.7Zm48.22,87.8,26,26c5.7-2.62,11.25-5.24,15.72-7.24l-41.75-41.75Z" style="fill: #e3bd5a"/>
          <g>
            <path d="M147.74,119.16a15.43,15.43,0,0,1,15.4,15.46,19.54,19.54,0,0,1-1.38,7c-3.14,7.28-10.68,15-13.17,17.48-.64.58-.91.69-1.7-.06-2.55-2.49-10-10.09-13.13-17.31-1.11-2.13-1.43-6.7-1.43-7.07A15.43,15.43,0,0,1,147.74,119.16Z" style="fill: #e2584d"/>
            <path d="M147.74,126.6a8,8,0,1,0,8,8A8,8,0,0,0,147.74,126.6Zm0,12.75a4.78,4.78,0,1,1,4.78-4.78A4.77,4.77,0,0,1,147.74,139.35Z" style="fill: #fff"/>
          </g>
          <g>
            <path d="M26.47,0a15.43,15.43,0,0,1,15.4,15.46,19.54,19.54,0,0,1-1.38,7c-3.13,7.27-10.68,15-13.17,17.47-.64.59-.91.69-1.7,0-2.55-2.5-10-10.09-13.12-17.32-1.12-2.12-1.44-6.69-1.44-7.06A15.43,15.43,0,0,1,26.47,0Z" style="fill: #e2584d"/>
            <path d="M26.47,7.44a8,8,0,1,0,8,8A8,8,0,0,0,26.47,7.44Zm0,12.75a4.79,4.79,0,1,1,4.78-4.79A4.76,4.76,0,0,1,26.47,20.19Z" style="fill: #fff"/>
          </g>
        </g>
        <g>
          <polygon points="114.17 144.07 114.17 135.66 92.54 135.66 92.54 144.07 103.35 153.69 114.17 144.07" style="fill: #e6b078"/>
          <path d="M130.89,148,116,144.51a2.24,2.24,0,0,1-.62-.25l-12.05,7-11.57-7.36a2.4,2.4,0,0,1-1.1.59L75.81,148a4.8,4.8,0,0,0-3.7,4.68v9.41a2.39,2.39,0,0,0,2.4,2.4h57.68a2.4,2.4,0,0,0,2.41-2.4v-9.41A4.81,4.81,0,0,0,130.89,148Z" style="fill: #717588"/>
          <path d="M92.54,135.66v8.88c13.62,4.9,21.63-7.38,21.63-7.38v-1.5Z" style="fill: #d29b6e"/>
          <path d="M87.73,108l1,23a7.22,7.22,0,0,0,2.87,5.44l5,3.73a7.26,7.26,0,0,0,4.33,1.44h4.81a7.23,7.23,0,0,0,4.32-1.44l5-3.73a7.23,7.23,0,0,0,2.88-5.44l1-23Z" style="fill: #efc087"/>
          <path d="M99.75,112.83c4.8,0,12-1.2,13.72-4.81H87.73l1,23a7.19,7.19,0,0,0,2.87,5.44l5,3.73a7.26,7.26,0,0,0,4.33,1.44h2.4c-2.4,0-7.21-4.81-7.21-10.82V116.43A3.83,3.83,0,0,1,99.75,112.83Z" style="fill: #e6b078"/>
          <g>
            <path d="M125.77,156.7l7.79-7a4.79,4.79,0,0,1,1,3v9.41a2.41,2.41,0,0,1-2.41,2.4h-8.41v-3.33A6,6,0,0,1,125.77,156.7Z" style="fill: #5c5e6f"/>
            <path d="M80.93,156.7l-7.79-7a4.78,4.78,0,0,0-1,3v9.41a2.4,2.4,0,0,0,2.4,2.4h8.41v-3.33A6,6,0,0,0,80.93,156.7Z" style="fill: #5c5e6f"/>
            <polygon points="106.36 164.5 100.35 164.5 101.1 153.69 105.61 153.69 106.36 164.5" style="fill: #5c5e6f"/>
          </g>
          <path d="M106.36,151.28h-6v.7a2.91,2.91,0,0,0,2.91,2.91h.19a2.92,2.92,0,0,0,2.91-2.91v-.7Z" style="fill: #525363"/>
          <g>
            <path d="M92.37,141.4l11,9.88A41.53,41.53,0,0,0,96.48,156a1.54,1.54,0,0,1-2.39-.54l-5.16-11.35,1.63-2.45A1.21,1.21,0,0,1,92.37,141.4Z" style="fill: #5c5e6f"/>
            <path d="M114.34,141.4l-11,9.88a41.33,41.33,0,0,1,6.88,4.68,1.53,1.53,0,0,0,2.38-.54l5.16-11.35-1.63-2.45A1.2,1.2,0,0,0,114.34,141.4Z" style="fill: #5c5e6f"/>
          </g>
          <path d="M110.64,100.06l1.12,8c5.15,1,5.89,9.1,6,11.4a2.34,2.34,0,0,0,.37,1.18l2,3s-.67-5,2.4-8.41C122.5,115.23,123.56,95.25,110.64,100.06Z" style="fill: #795651"/>
          <path d="M121.3,123.13,120,128.56a1.45,1.45,0,0,1-1.41,1.09h0a1.45,1.45,0,0,1-1.43-1.26l-.69-5.56a2.48,2.48,0,0,1,2.46-2.79h0A2.48,2.48,0,0,1,121.3,123.13Z" style="fill: #efc087"/>
          <path d="M88.88,97.91l1.78,1.21c-8,5.93-6.54,16.11-6.54,16.11,2.41,2.4,2.41,8.41,2.41,8.41l2.4-2.4s-.93-6.94,3.61-9.61c4.2-2.48,7.88-1.21,11.64-1.21,10.06,0,12.88-3.79,12.39-8.41-.25-2.39-3.91-7.37-13.22-7.21C99.59,94.87,92.54,96,88.88,97.91Z" style="fill: #6a4c4c"/>
          <path d="M88.18,109.37a13.18,13.18,0,0,1,2.48-10.25c-8,5.93-6.54,16.11-6.54,16.11,2.41,2.4,2.41,8.41,2.41,8.41l2.4-2.4s-.93-6.94,3.61-9.61c4.2-2.48,7.88-1.21,11.64-1.21a30.65,30.65,0,0,0,4.33-.29C100.76,110.39,96.19,104.51,88.18,109.37Z" style="fill: #5b4247"/>
          <path d="M85.4,123.13l1.36,5.43a1.44,1.44,0,0,0,1.4,1.09h0a1.44,1.44,0,0,0,1.43-1.26l.7-5.56A2.49,2.49,0,0,0,87.82,120h0A2.49,2.49,0,0,0,85.4,123.13Z" style="fill: #e6b078"/>
          <path d="M117.77,162.1h-6a2.4,2.4,0,0,0-2.4,2.4h10.82A2.4,2.4,0,0,0,117.77,162.1Z" style="fill: #5c5e6f"/>
        </g>
        <rect x="46.05" y="162.04" width="113" height="37" rx="4.04" style="fill: #fff"/>
        <text transform="translate(64.56 188.82)" style="font-size: 20px;fill: #2e2e2e;font-family: Nunito-Bold, Nunito;font-weight: 700">Supplier</text>
      </g>
    </g>
  </g>
</svg>
