<?xml version="1.0" encoding="utf-8"?>
<!-- Generator: Adobe Illustrator 23.0.2, SVG Export Plug-In . SVG Version: 6.00 Build 0)  -->
<svg version="1.1" id="Capa_1" xmlns="http://www.w3.org/2000/svg" xmlns:xlink="http://www.w3.org/1999/xlink" x="0px" y="0px"
	 viewBox="0 0 512 512" style="enable-background:new 0 0 512 512;" xml:space="preserve">
<style type="text/css">
	.st0{fill:#081C1D;}
</style>
<g>
	<g>
		<g id="post-twitter">
			<path class="st0" d="M460.8,0H51.2C23,0,0,23,0,51.2v409.6C0,489,23,512,51.2,512h409.6c28.2,0,51.2-23,51.2-51.2V51.2
				C512,23,489,0,460.8,0z M401.9,186.9c-2.6,117.8-76.8,199.7-189.4,204.8c-46.1,2.6-79.4-12.8-110.1-30.7
				c33.3,5.1,76.8-7.7,99.8-28.2c-33.3-2.6-53.8-20.5-64-48.6c10.2,2.6,20.5,0,28.2,0c-30.7-10.2-51.2-28.2-53.8-69.1
				c7.7,5.1,17.9,7.7,28.2,7.7c-23-12.8-38.4-61.4-20.5-92.2c33.3,35.8,74.2,66.6,140.8,71.7c-17.9-71.7,79.4-110.1,117.8-61.4
				c17.9-2.6,30.7-10.2,43.5-15.4c-5.1,17.9-15.4,28.2-28.2,38.4c12.8-2.6,25.6-5.1,35.8-10.2C427.5,166.4,414.7,176.6,401.9,186.9z
				"/>
		</g>
	</g>
</g>
</svg>
