<?xml version="1.0" encoding="utf-8"?>
<!-- Generator: Adobe Illustrator 23.0.2, SVG Export Plug-In . SVG Version: 6.00 Build 0)  -->
<svg version="1.1" id="Layer_1" xmlns="http://www.w3.org/2000/svg" xmlns:xlink="http://www.w3.org/1999/xlink" x="0px" y="0px"
	 viewBox="0 0 220.6 204.4" style="enable-background:new 0 0 220.6 204.4;" xml:space="preserve">
<style type="text/css">
	.st0{fill:#BA795F;}
	.st1{fill:#AB6556;}
	.st2{fill:#B6E0F7;}
	.st3{fill:#DAF0FC;}
	.st4{fill:#D3555B;}
	.st5{fill:#C8D0E2;}
	.st6{fill:#F16465;}
	.st7{fill:#F0F3FA;}
	.st8{opacity:0.97;}
	.st9{fill:#AFB9D2;}
	.st10{fill:#5C5E6F;}
	.st11{fill:#A1D1F0;}
	.st12{fill:#E6B078;}
	.st13{fill:#D29B6E;}
	.st14{fill:#EFC087;}
	.st15{fill:#E4E9F6;}
	.st16{fill:#525363;}
	.st17{fill:#795651;}
	.st18{fill:#6A4C4C;}
	.st19{fill:#5B4247;}
	.st20{fill:#FFFFFF;}
	.st21{enable-background:new    ;}
	.st22{fill:#2E2E2E;}
</style>
<g>
	<path class="st0" d="M213,182.6H7.6V3.8C7.6,1.7,9.3,0,11.4,0h197.8c2.1,0,3.8,1.7,3.8,3.8V182.6z"/>
	<path class="st1" d="M213,60.5c-0.8,0.2-1.6,0.3-2.4,0.3c-5.5,0-10-4.5-10-10c0,5.5-4.5,10-10,10s-10-4.5-10-10c0,5.5-4.5,10-10,10
		s-10-4.5-10-10c0,5.5-4.5,10-10,10s-10-4.5-10-10c0,5.5-4.5,10-10,10s-10-4.5-10-10c0,5.5-4.5,10-10,10s-10-4.5-10-10
		c0,5.5-4.5,10-10,10s-10-4.5-10-10c0,5.5-4.5,10-10,10c-5.5,0-10-4.5-10-10c0,5.5-4.5,10-10,10s-10-4.5-10-10c0,5.5-4.5,10-10,10
		s-10-4.5-10-10c0,5.5-4.5,10-10,10c-0.8,0-1.6-0.1-2.4-0.3v7.7c0.8,0.1,1.6,0.2,2.4,0.2c3.6,0,7.1-1.1,10-3.1c6,4.2,14,4.2,20.1,0
		c6,4.2,14,4.2,20.1,0c6,4.2,14,4.2,20.1,0c6,4.2,14,4.2,20.1,0c6,4.2,14,4.2,20.1,0c6,4.2,14,4.2,20.1,0c6,4.2,14,4.2,20.1,0
		c6,4.2,14,4.2,20.1,0c6,4.2,14,4.2,20.1,0c3.6,2.6,8.1,3.7,12.4,2.9V60.5z"/>
	<rect x="26.6" y="76.1" class="st2" width="106.5" height="68.5"/>
	<polygon class="st3" points="114.1,140.8 106.5,140.8 60.9,79.9 68.5,79.9 	"/>
	<g>
		<path class="st4" d="M90.3,60.9L90.3,60.9c-5.5,0-10-4.5-10-10v-9h20v9C100.3,56.4,95.8,60.9,90.3,60.9
			C90.3,60.9,90.3,60.9,90.3,60.9z"/>
		<path class="st4" d="M130.4,60.9L130.4,60.9c-5.5,0-10-4.5-10-10v-9h20.1v9C140.4,56.4,136,60.9,130.4,60.9
			C130.4,60.9,130.4,60.9,130.4,60.9z"/>
		<path class="st4" d="M50.2,60.9L50.2,60.9c-5.5,0-10-4.5-10-10v-9h20v9C60.2,56.4,55.7,60.9,50.2,60.9
			C50.2,60.9,50.2,60.9,50.2,60.9z"/>
		<path class="st4" d="M10,60.9L10,60.9c-5.5,0-10-4.5-10-10v-9h20.1v9C20.1,56.4,15.6,60.9,10,60.9C10,60.9,10,60.9,10,60.9z"/>
		<path class="st4" d="M170.5,60.9L170.5,60.9c-5.5,0-10-4.5-10-10v-9h20.1v9C180.6,56.4,176.1,60.9,170.5,60.9
			C170.5,60.9,170.5,60.9,170.5,60.9z"/>
	</g>
	<g>
		<path class="st5" d="M70.2,60.9L70.2,60.9c-5.5,0-10-4.5-10-10v-9h20v9C80.2,56.4,75.8,60.9,70.2,60.9
			C70.2,60.9,70.2,60.9,70.2,60.9z"/>
		<path class="st5" d="M150.4,60.9L150.4,60.9c-5.5,0-10-4.5-10-10v-9h20.1v9C160.5,56.4,156,60.9,150.4,60.9
			C150.5,60.9,150.5,60.9,150.4,60.9z"/>
	</g>
	<path class="st4" d="M210.6,60.9L210.6,60.9c-5.5,0-10-4.5-10-10v-9h20.1v9C220.7,56.4,216.2,60.9,210.6,60.9
		C210.7,60.9,210.6,60.9,210.6,60.9z"/>
	<g>
		<path class="st5" d="M190.6,60.9L190.6,60.9c-5.5,0-10-4.5-10-10v-9h20.1v9C200.6,56.4,196.1,60.9,190.6,60.9
			C190.6,60.9,190.6,60.9,190.6,60.9z"/>
		<path class="st5" d="M30.1,60.9L30.1,60.9c-5.5,0-10-4.5-10-10v-9h20v9C40.1,56.4,35.6,60.9,30.1,60.9
			C30.1,60.9,30.1,60.9,30.1,60.9z"/>
		<path class="st5" d="M110.3,60.9L110.3,60.9c-5.5,0-10-4.5-10-10v-9h20v9C120.3,56.4,115.8,60.9,110.3,60.9z"/>
	</g>
	<g>
		<polygon class="st6" points="100.3,41.8 80.2,41.8 82.3,11.4 101,11.4 		"/>
		<polygon class="st6" points="140.4,41.8 120.4,41.8 119.7,11.4 138.3,11.4 		"/>
		<polygon class="st6" points="60.2,41.8 40.1,41.8 45,11.4 63.6,11.4 		"/>
		<polygon class="st6" points="20.1,41.8 0,41.8 7.6,11.4 26.3,11.4 		"/>
		<polygon class="st6" points="180.5,41.8 160.5,41.8 157,11.4 175.7,11.4 		"/>
	</g>
	<g>
		<polygon class="st7" points="80.2,41.8 60.2,41.8 63.6,11.4 82.3,11.4 		"/>
		<polygon class="st7" points="160.5,41.8 140.4,41.8 138.3,11.4 157,11.4 		"/>
	</g>
	<polygon class="st6" points="220.6,41.8 200.6,41.8 194.4,11.4 213,11.4 	"/>
	<g>
		<polygon class="st7" points="200.6,41.8 180.5,41.8 175.7,11.4 194.4,11.4 		"/>
		<polygon class="st7" points="40.1,41.8 20.1,41.8 26.3,11.4 45,11.4 		"/>
		<polygon class="st7" points="120.4,41.8 100.3,41.8 101,11.4 119.7,11.4 		"/>
	</g>
	<path class="st5" d="M216.9,186.4H3.8c-2.1,0-3.8-1.7-3.8-3.8c0,0,0,0,0,0l0,0c0-2.1,1.7-3.8,3.8-3.8h213.1c2.1,0,3.8,1.7,3.8,3.8
		l0,0C220.7,184.7,218.9,186.4,216.9,186.4L216.9,186.4z"/>
	<g class="st8">
		<rect x="7.6" y="171.2" class="st9" width="205.4" height="7.6"/>
	</g>
	<rect x="7.6" y="156" class="st1" width="205.4" height="15.2"/>
	<g>
		<path class="st10" d="M129.4,79.9v60.9H30.4V79.9H129.4 M133.2,72.3H26.6c-2.1,0-3.8,1.7-3.8,3.8v68.5c0,2.1,1.7,3.8,3.8,3.8
			h106.5c2.1,0,3.8-1.7,3.8-3.8V76.1C137,74,135.3,72.3,133.2,72.3L133.2,72.3z"/>
		<path class="st10" d="M194,72.3h-38c-2.1,0-3.8,1.7-3.8,3.8v95.1h45.6V76.1C197.8,74,196.1,72.3,194,72.3
			C194,72.3,194,72.3,194,72.3z"/>
	</g>
	<rect x="159.8" y="79.9" class="st2" width="30.4" height="60.9"/>
	<rect x="30.4" y="79.9" class="st11" width="98.9" height="7.6"/>
	<rect id="SVGCleanerId_0" x="159.8" y="79.9" class="st11" width="30.4" height="7.6"/>
	<polygon class="st11" points="98.9,140.8 83.7,140.8 38,79.9 53.3,79.9 	"/>
	<polygon class="st2" points="74.2,87.5 68.5,79.9 60.9,79.9 66.6,87.5 	"/>
	<polygon class="st3" points="190.2,110.3 167.4,79.9 159.8,79.9 190.2,120.5 	"/>
	<polygon class="st2" points="173.1,87.5 167.4,79.9 159.8,79.9 165.5,87.5 	"/>
	<rect id="SVGCleanerId_0-2" x="159.8" y="79.9" class="st11" width="30.4" height="7.6"/>
	<polygon class="st3" points="190.2,110.3 167.4,79.9 159.8,79.9 190.2,120.5 	"/>
	<polygon class="st11" points="159.8,90 159.8,110.3 182.6,140.8 190.2,140.8 190.2,130.6 	"/>
</g>
<g>
	<polygon class="st12" points="121.8,149.2 121.8,140.8 100.2,140.8 100.2,149.2 111,158.8 	"/>
	<path class="st7" d="M138.5,153.1l-14.9-3.5c-0.2,0-0.4-0.1-0.6-0.2l-12,7L99.4,149c-0.3,0.3-0.7,0.5-1.1,0.6l-14.9,3.5
		c-2.2,0.5-3.7,2.4-3.7,4.7v9.4c0,1.3,1.1,2.4,2.4,2.4c0,0,0,0,0,0h57.7c1.3,0,2.4-1.1,2.4-2.4c0,0,0,0,0,0v-9.4
		C142.2,155.6,140.7,153.6,138.5,153.1z"/>
	<path class="st13" d="M100.2,140.8v8.9c13.6,4.9,21.6-7.4,21.6-7.4v-1.5H100.2z"/>
	<path class="st14" d="M95.4,113.1l1,23c0.1,2.2,1.2,4.1,2.9,5.4l5,3.7c1.2,0.9,2.8,1.4,4.3,1.4h4.8c1.6,0,3.1-0.5,4.3-1.4l5-3.7
		c1.7-1.3,2.8-3.3,2.9-5.4l1.1-23L95.4,113.1z"/>
	<path class="st12" d="M107.4,117.9c4.8,0,12-1.2,13.7-4.8H95.4l1,23c0.1,2.2,1.2,4.1,2.9,5.4l5,3.7c1.2,0.9,2.8,1.4,4.3,1.4h2.4
		c-2.4,0-7.2-4.8-7.2-10.8v-14.4C103.9,119.6,105.5,118.1,107.4,117.9z"/>
	<g>
		<path class="st15" d="M133.4,161.8l7.8-7c0.7,0.9,1,1.9,1,3v9.4c0,1.3-1.1,2.4-2.4,2.4h-8.4v-3.3
			C131.4,164.6,132.1,162.9,133.4,161.8z"/>
		<path class="st15" d="M88.6,161.8l-7.8-7c-0.7,0.9-1,1.9-1,3v9.4c0,1.3,1.1,2.4,2.4,2.4h8.4v-3.3
			C90.6,164.6,89.9,162.9,88.6,161.8z"/>
	</g>
	<polygon class="st10" points="114,169.6 108,169.6 108.7,158.8 113.2,158.8 	"/>
	<path class="st16" d="M114,156.4h-6v0.7c0,1.6,1.3,2.9,2.9,2.9h0.2c1.6,0,2.9-1.3,2.9-2.9l0,0C114,157.1,114,156.4,114,156.4z"/>
	<g>
		<path class="st15" d="M100,146.5l11,9.9c-2.4,1.3-4.7,2.9-6.9,4.7c-0.6,0.5-1.6,0.5-2.2-0.2c-0.1-0.1-0.2-0.2-0.2-0.4l-5.2-11.4
			l1.6-2.4c0.4-0.5,1.1-0.7,1.7-0.3C99.9,146.4,100,146.5,100,146.5z"/>
		<path class="st15" d="M122,146.5l-11,9.9c2.4,1.3,4.7,2.9,6.9,4.7c0.7,0.5,1.6,0.5,2.2-0.2c0.1-0.1,0.2-0.2,0.2-0.3l5.2-11.4
			l-1.6-2.4c-0.4-0.5-1.1-0.7-1.7-0.3C122.1,146.5,122,146.5,122,146.5z"/>
	</g>
	<path class="st17" d="M118.3,105.2l1.1,8c5.1,1,5.9,9.1,6,11.4c0,0.4,0.2,0.8,0.4,1.2l2,3c0,0-0.7-5,2.4-8.4
		C130.1,120.3,131.2,100.4,118.3,105.2z"/>
	<path class="st14" d="M129,128.2l-1.4,5.4c-0.2,0.6-0.7,1.1-1.4,1.1l0,0c-0.7,0-1.3-0.5-1.4-1.3l-0.7-5.6c-0.2-1.4,0.8-2.6,2.2-2.8
		c0.1,0,0.2,0,0.3,0l0,0c1.4,0,2.5,1.1,2.5,2.5C129.1,127.8,129,128,129,128.2z"/>
	<path class="st18" d="M96.5,103l1.8,1.2c-8,5.9-6.5,16.1-6.5,16.1c2.4,2.4,2.4,8.4,2.4,8.4l2.4-2.4c0,0-0.9-6.9,3.6-9.6
		c4.2-2.5,7.9-1.2,11.6-1.2c10.1,0,12.9-3.8,12.4-8.4c-0.3-2.4-3.9-7.4-13.2-7.2C107.2,100,100.2,101.1,96.5,103z"/>
	<path class="st19" d="M95.8,114.5c-0.6-3.6,0.3-7.3,2.5-10.2c-8,5.9-6.5,16.1-6.5,16.1c2.4,2.4,2.4,8.4,2.4,8.4l2.4-2.4
		c0,0-0.9-6.9,3.6-9.6c4.2-2.5,7.9-1.2,11.6-1.2c1.5,0,2.9-0.1,4.3-0.3C108.4,115.5,103.8,109.6,95.8,114.5z"/>
	<path class="st12" d="M93.1,128.2l1.3,5.4c0.2,0.6,0.7,1.1,1.4,1.1l0,0c0.7,0,1.3-0.5,1.4-1.3l0.7-5.6c0.2-1.4-0.8-2.6-2.2-2.8
		c-0.1,0-0.2,0-0.3,0l0,0c-1.4,0-2.5,1.1-2.5,2.5C93,127.8,93,128,93.1,128.2z"/>
	<path class="st15" d="M125.4,167.2h-6c-1.3,0-2.4,1.1-2.4,2.4c0,0,0,0,0,0h10.8C127.8,168.3,126.8,167.2,125.4,167.2
		C125.4,167.2,125.4,167.2,125.4,167.2z"/>
</g>
<path class="st20" d="M57.8,167.4h104.9c2.2,0,4,1.8,4,4v28.9c0,2.2-1.8,4-4,4H57.8c-2.2,0-4-1.8-4-4v-28.9
	C53.8,169.2,55.6,167.4,57.8,167.4z"/>
<g class="st21">
	<path class="st22" d="M90.2,180c0.3,0,0.6,0.1,0.9,0.3c0.3,0.2,0.4,0.5,0.4,0.8c0,0.1,0,0.3-0.1,0.5l-5.5,11.9
		c-0.1,0.3-0.3,0.4-0.5,0.6c-0.2,0.1-0.5,0.2-0.8,0.2c-0.3,0-0.5-0.1-0.8-0.2c-0.2-0.1-0.4-0.3-0.6-0.6l-5.5-11.9
		c-0.1-0.2-0.1-0.3-0.1-0.5c0-0.3,0.1-0.6,0.4-0.8c0.3-0.2,0.6-0.3,0.9-0.3c0.2,0,0.4,0.1,0.6,0.2s0.3,0.3,0.5,0.5l4.6,10.2
		l4.6-10.2C89.4,180.2,89.7,180,90.2,180z"/>
</g>
<g class="st21">
	<path class="st22" d="M100.1,191.8c0.1,0.2,0.2,0.4,0.2,0.7c0,0.4-0.2,0.8-0.7,1c-0.5,0.3-1,0.5-1.5,0.6c-0.6,0.2-1.1,0.2-1.6,0.2
		c-1.6,0-2.8-0.5-3.7-1.4c-0.9-0.9-1.4-2.1-1.4-3.7c0-1,0.2-1.9,0.6-2.7s1-1.4,1.7-1.8s1.6-0.6,2.5-0.6c0.9,0,1.6,0.2,2.3,0.6
		c0.7,0.4,1.2,0.9,1.5,1.6c0.4,0.7,0.5,1.5,0.5,2.5c0,0.6-0.3,0.9-0.8,0.9h-5.9c0.1,0.9,0.3,1.6,0.8,2c0.4,0.4,1.1,0.7,1.9,0.7
		c0.4,0,0.8-0.1,1.1-0.2s0.7-0.3,1.1-0.4c0.4-0.2,0.7-0.3,0.9-0.3C99.7,191.5,99.9,191.6,100.1,191.8z M94.4,186.6
		c-0.4,0.4-0.7,1-0.7,1.8h4.5c0-0.8-0.2-1.4-0.6-1.8c-0.4-0.4-0.9-0.6-1.6-0.6C95.4,186,94.8,186.2,94.4,186.6z"/>
	<path class="st22" d="M110.7,185.2c0.6,0.7,0.9,1.7,0.9,3v4.9c0,0.4-0.1,0.7-0.3,0.9s-0.5,0.3-0.9,0.3c-0.4,0-0.7-0.1-0.9-0.3
		s-0.3-0.5-0.3-0.9v-4.8c0-0.8-0.1-1.3-0.4-1.7s-0.7-0.5-1.3-0.5c-0.7,0-1.3,0.2-1.7,0.7c-0.4,0.5-0.7,1.1-0.7,1.8v4.5
		c0,0.4-0.1,0.7-0.3,0.9c-0.2,0.2-0.5,0.3-0.9,0.3s-0.7-0.1-0.9-0.3c-0.2-0.2-0.3-0.5-0.3-0.9v-7.7c0-0.3,0.1-0.6,0.3-0.8
		c0.2-0.2,0.5-0.3,0.9-0.3c0.3,0,0.6,0.1,0.9,0.3c0.2,0.2,0.3,0.5,0.3,0.8v0.5c0.3-0.5,0.8-1,1.3-1.3c0.6-0.3,1.2-0.4,1.9-0.4
		C109.3,184.2,110.1,184.5,110.7,185.2z"/>
	<path class="st22" d="M123.2,180.3c0.2,0.2,0.4,0.5,0.4,0.8v12c0,0.4-0.1,0.6-0.3,0.9c-0.2,0.2-0.5,0.3-0.9,0.3
		c-0.4,0-0.7-0.1-0.9-0.3c-0.2-0.2-0.3-0.5-0.3-0.9v-0.5c-0.3,0.5-0.7,1-1.3,1.3c-0.6,0.3-1.2,0.5-1.9,0.5c-0.8,0-1.6-0.2-2.2-0.6
		c-0.7-0.4-1.2-1-1.5-1.8c-0.4-0.8-0.5-1.7-0.5-2.7c0-1,0.2-1.9,0.5-2.7c0.4-0.8,0.9-1.3,1.5-1.8c0.7-0.4,1.4-0.6,2.3-0.6
		c0.7,0,1.3,0.1,1.9,0.4c0.5,0.3,1,0.7,1.3,1.2v-4.7c0-0.3,0.1-0.6,0.3-0.8c0.2-0.2,0.5-0.3,0.9-0.3S122.9,180.1,123.2,180.3z
		 M120.4,191.6c0.4-0.5,0.6-1.3,0.6-2.3c0-1-0.2-1.8-0.6-2.3c-0.4-0.5-1-0.8-1.8-0.8c-0.8,0-1.4,0.3-1.9,0.8
		c-0.4,0.5-0.7,1.3-0.7,2.3c0,1,0.2,1.8,0.7,2.4c0.4,0.6,1.1,0.8,1.8,0.8C119.4,192.4,120,192.2,120.4,191.6z"/>
	<path class="st22" d="M127.9,193.8c-0.8-0.4-1.3-1-1.8-1.8c-0.4-0.8-0.6-1.7-0.6-2.7c0-1,0.2-1.9,0.6-2.7c0.4-0.8,1-1.4,1.8-1.8
		c0.8-0.4,1.6-0.6,2.6-0.6s1.9,0.2,2.6,0.6c0.8,0.4,1.3,1,1.7,1.8c0.4,0.8,0.6,1.7,0.6,2.7c0,1-0.2,1.9-0.6,2.7
		c-0.4,0.8-1,1.4-1.7,1.8s-1.6,0.6-2.6,0.6S128.7,194.2,127.9,193.8z M132.4,191.6c0.4-0.5,0.6-1.3,0.6-2.4c0-1-0.2-1.8-0.6-2.3
		c-0.4-0.5-1-0.8-1.8-0.8c-0.8,0-1.4,0.3-1.8,0.8c-0.4,0.5-0.7,1.3-0.7,2.3c0,1,0.2,1.8,0.6,2.4s1,0.8,1.8,0.8
		C131.4,192.4,132,192.2,132.4,191.6z"/>
	<path class="st22" d="M143.9,184.5c0.2,0.2,0.3,0.4,0.3,0.8c0,0.4-0.1,0.6-0.3,0.8c-0.2,0.2-0.5,0.3-0.9,0.3l-0.6,0.1
		c-0.8,0.1-1.4,0.3-1.7,0.8c-0.4,0.5-0.6,1-0.6,1.7v4.2c0,0.4-0.1,0.7-0.4,0.9c-0.2,0.2-0.5,0.3-0.9,0.3s-0.7-0.1-0.9-0.3
		c-0.2-0.2-0.3-0.5-0.3-0.9v-7.7c0-0.4,0.1-0.7,0.3-0.9c0.2-0.2,0.5-0.3,0.9-0.3c0.3,0,0.6,0.1,0.8,0.3c0.2,0.2,0.3,0.5,0.3,0.8v0.8
		c0.3-0.6,0.6-1,1.1-1.4s1.1-0.5,1.7-0.5l0.3,0C143.4,184.2,143.7,184.3,143.9,184.5z"/>
</g>
</svg>
