<svg xmlns="http://www.w3.org/2000/svg" width="220.65" height="204.44" viewBox="0 0 220.65 204.44">
  <title>vendor</title>
  <g id="Layer_2" data-name="Layer 2">
    <g id="Layer_1-2" data-name="Layer 1">
      <g>
        <g>
          <path d="M213,182.61H7.61V3.8A3.8,3.8,0,0,1,11.41,0H209.24A3.8,3.8,0,0,1,213,3.8Z" style="fill: #ba795f"/>
          <path d="M213,60.54a9.68,9.68,0,0,1-2.42.33,10,10,0,0,1-10-10,10,10,0,0,1-20.06,0,10,10,0,1,1-20.06,0,10,10,0,0,1-20.06,0,10,10,0,1,1-20.06,0,10,10,0,0,1-20.06,0,10,10,0,1,1-20.06,0,10,10,0,1,1-20.05,0,10,10,0,1,1-20.06,0,10,10,0,0,1-20.06,0,10,10,0,0,1-10,10,9.68,9.68,0,0,1-2.42-.33v7.69a17.4,17.4,0,0,0,2.42.25,17.53,17.53,0,0,0,10-3.14,17.59,17.59,0,0,0,20.06,0,17.59,17.59,0,0,0,20.06,0,17.59,17.59,0,0,0,20.06,0,17.57,17.57,0,0,0,20.05,0,17.59,17.59,0,0,0,20.06,0,17.59,17.59,0,0,0,20.06,0,17.59,17.59,0,0,0,20.06,0,17.59,17.59,0,0,0,20.06,0,17.59,17.59,0,0,0,20.06,0A16.17,16.17,0,0,0,213,68.23V60.54Z" style="fill: #ab6556"/>
          <rect x="26.63" y="76.09" width="106.52" height="68.48" style="fill: #b6e0f7"/>
          <polygon points="114.13 140.76 106.52 140.76 60.87 79.89 68.48 79.89 114.13 140.76" style="fill: #daf0fc"/>
          <g>
            <path d="M90.27,60.87h0a10,10,0,0,1-10-10v-9H100.3v9A10,10,0,0,1,90.27,60.87Z" style="fill: #d3555b"/>
            <path d="M130.38,60.87h0a10,10,0,0,1-10-10v-9h20.06v9A10,10,0,0,1,130.38,60.87Z" style="fill: #d3555b"/>
            <path d="M50.15,60.87h0a10,10,0,0,1-10-10v-9H60.18v9A10,10,0,0,1,50.15,60.87Z" style="fill: #d3555b"/>
            <path d="M10,60.87h0a10,10,0,0,1-10-10v-9H20.06v9A10,10,0,0,1,10,60.87Z" style="fill: #d3555b"/>
            <path d="M170.5,60.87h0a10,10,0,0,1-10-10v-9h20.06v9A10,10,0,0,1,170.5,60.87Z" style="fill: #d3555b"/>
          </g>
          <g>
            <path d="M70.21,60.87h0a10,10,0,0,1-10-10v-9H80.24v9A10,10,0,0,1,70.21,60.87Z" style="fill: #c8d0e2"/>
            <path d="M150.44,60.87h0a10,10,0,0,1-10-10v-9h20.06v9A10,10,0,0,1,150.44,60.87Z" style="fill: #c8d0e2"/>
          </g>
          <path d="M210.62,60.87h0a10,10,0,0,1-10-10v-9h20.06v9A10,10,0,0,1,210.62,60.87Z" style="fill: #d3555b"/>
          <g>
            <path d="M190.56,60.87h0a10,10,0,0,1-10-10v-9h20.06v9A10,10,0,0,1,190.56,60.87Z" style="fill: #c8d0e2"/>
            <path d="M30.09,60.87h0a10,10,0,0,1-10-10v-9H40.12v9A10,10,0,0,1,30.09,60.87Z" style="fill: #c8d0e2"/>
            <path d="M110.32,60.87h0a10,10,0,0,1-10-10v-9h20v9A10,10,0,0,1,110.32,60.87Z" style="fill: #c8d0e2"/>
          </g>
          <g>
            <polygon points="100.3 41.85 80.24 41.85 82.31 11.41 100.99 11.41 100.3 41.85" style="fill: #f16465"/>
            <polygon points="140.41 41.85 120.36 41.85 119.66 11.41 138.34 11.41 140.41 41.85" style="fill: #f16465"/>
            <polygon points="60.18 41.85 40.12 41.85 44.96 11.41 63.64 11.41 60.18 41.85" style="fill: #f16465"/>
            <polygon points="20.06 41.85 0 41.85 7.61 11.41 26.28 11.41 20.06 41.85" style="fill: #f16465"/>
            <polygon points="180.53 41.85 160.47 41.85 157.01 11.41 175.69 11.41 180.53 41.85" style="fill: #f16465"/>
          </g>
          <g>
            <polygon points="80.24 41.85 60.18 41.85 63.64 11.41 82.31 11.41 80.24 41.85" style="fill: #f0f3fa"/>
            <polygon points="160.47 41.85 140.41 41.85 138.34 11.41 157.01 11.41 160.47 41.85" style="fill: #f0f3fa"/>
          </g>
          <polygon points="220.65 41.85 200.59 41.85 194.37 11.41 213.04 11.41 220.65 41.85" style="fill: #f16465"/>
          <g>
            <polygon points="200.59 41.85 180.53 41.85 175.69 11.41 194.37 11.41 200.59 41.85" style="fill: #f0f3fa"/>
            <polygon points="40.12 41.85 20.06 41.85 26.28 11.41 44.96 11.41 40.12 41.85" style="fill: #f0f3fa"/>
            <polygon points="120.36 41.85 100.3 41.85 100.99 11.41 119.66 11.41 120.36 41.85" style="fill: #f0f3fa"/>
          </g>
          <path d="M216.85,186.41H3.8a3.8,3.8,0,0,1-3.8-3.8H0a3.81,3.81,0,0,1,3.8-3.81H216.85a3.81,3.81,0,0,1,3.8,3.81h0A3.8,3.8,0,0,1,216.85,186.41Z" style="fill: #c8d0e2"/>
          <g style="opacity: 0.97000002861023">
            <rect x="7.61" y="171.19" width="205.43" height="7.61" style="fill: #afb9d2"/>
          </g>
          <rect x="7.61" y="155.98" width="205.43" height="15.22" style="fill: #ab6556"/>
          <g>
            <path d="M129.35,79.89v60.87H30.43V79.89h98.92m3.8-7.61H26.63a3.81,3.81,0,0,0-3.8,3.81v68.47a3.81,3.81,0,0,0,3.8,3.81H133.15a3.82,3.82,0,0,0,3.81-3.81V76.09a3.82,3.82,0,0,0-3.81-3.81Z" style="fill: #5c5e6f"/>
            <path d="M194,72.28H156a3.82,3.82,0,0,0-3.81,3.81v95.1h45.65V76.09A3.81,3.81,0,0,0,194,72.28Z" style="fill: #5c5e6f"/>
          </g>
          <rect x="159.78" y="79.89" width="30.43" height="60.87" style="fill: #b6e0f7"/>
          <rect x="30.43" y="79.89" width="98.91" height="7.61" style="fill: #a1d1f0"/>
          <rect id="SVGCleanerId_0" data-name="SVGCleanerId 0" x="159.78" y="79.89" width="30.43" height="7.61" style="fill: #a1d1f0"/>
          <polygon points="98.91 140.76 83.69 140.76 38.04 79.89 53.26 79.89 98.91 140.76" style="fill: #a1d1f0"/>
          <polygon points="74.18 87.5 68.48 79.89 60.87 79.89 66.58 87.5 74.18 87.5" style="fill: #b6e0f7"/>
          <polygon points="190.22 110.33 167.39 79.89 159.78 79.89 190.22 120.47 190.22 110.33" style="fill: #daf0fc"/>
          <polygon points="173.1 87.5 167.39 79.89 159.78 79.89 165.49 87.5 173.1 87.5" style="fill: #b6e0f7"/>
          <rect id="SVGCleanerId_0-2" data-name="SVGCleanerId 0" x="159.78" y="79.89" width="30.43" height="7.61" style="fill: #a1d1f0"/>
          <polygon points="190.22 110.33 167.39 79.89 159.78 79.89 190.22 120.47 190.22 110.33" style="fill: #daf0fc"/>
          <polygon points="159.78 90.03 159.78 110.33 182.61 140.76 190.22 140.76 190.22 130.61 159.78 90.03" style="fill: #a1d1f0"/>
        </g>
        <g>
          <g>
            <polygon points="121.81 149.18 121.81 140.77 100.18 140.77 100.18 149.18 111 158.8 121.81 149.18" style="fill: #e6b078"/>
            <path d="M138.54,153.12l-14.87-3.5a2.18,2.18,0,0,1-.63-.25l-12,7L99.42,149a2.42,2.42,0,0,1-1.09.59l-14.87,3.5a4.81,4.81,0,0,0-3.71,4.68v9.41a2.4,2.4,0,0,0,2.41,2.4h57.68a2.39,2.39,0,0,0,2.4-2.4V157.8A4.8,4.8,0,0,0,138.54,153.12Z" style="fill: #f0f3fa"/>
            <path d="M100.18,140.77v8.88c13.63,4.9,21.63-7.38,21.63-7.38v-1.5Z" style="fill: #d29b6e"/>
            <path d="M95.37,113.13l1,23a7.23,7.23,0,0,0,2.88,5.44l5,3.73a7.23,7.23,0,0,0,4.32,1.44h4.81a7.26,7.26,0,0,0,4.33-1.44l5-3.73a7.22,7.22,0,0,0,2.87-5.44l1.05-23Z" style="fill: #efc087"/>
            <path d="M107.39,117.94c4.81,0,12-1.2,13.73-4.81H95.37l1,23a7.2,7.2,0,0,0,2.88,5.44l5,3.73a7.23,7.23,0,0,0,4.32,1.44H111c-2.41,0-7.21-4.81-7.21-10.82V121.54A3.83,3.83,0,0,1,107.39,117.94Z" style="fill: #e6b078"/>
            <g>
              <path d="M133.42,161.81l7.79-7a4.78,4.78,0,0,1,1,3v9.41a2.4,2.4,0,0,1-2.4,2.4h-8.41v-3.33A6,6,0,0,1,133.42,161.81Z" style="fill: #e4e9f6"/>
              <path d="M88.57,161.81l-7.78-7a4.79,4.79,0,0,0-1,3v9.41a2.41,2.41,0,0,0,2.41,2.4h8.41v-3.33A6,6,0,0,0,88.57,161.81Z" style="fill: #e4e9f6"/>
            </g>
            <polygon points="114 169.61 107.99 169.61 108.74 158.8 113.25 158.8 114 169.61" style="fill: #5c5e6f"/>
            <path d="M114,156.39h-6v.7A2.92,2.92,0,0,0,110.9,160h.19a2.91,2.91,0,0,0,2.91-2.91v-.7Z" style="fill: #525363"/>
            <g>
              <path d="M100,146.51l11,9.88a41.33,41.33,0,0,0-6.88,4.68,1.53,1.53,0,0,1-2.38-.54l-5.16-11.35,1.63-2.45A1.2,1.2,0,0,1,100,146.51Z" style="fill: #e4e9f6"/>
              <path d="M122,146.51l-11,9.88a41.53,41.53,0,0,1,6.87,4.68,1.54,1.54,0,0,0,2.39-.54l5.16-11.35-1.63-2.45A1.21,1.21,0,0,0,122,146.51Z" style="fill: #e4e9f6"/>
            </g>
            <path d="M118.28,105.17l1.13,8c5.14,1,5.88,9.1,6,11.4a2.36,2.36,0,0,0,.38,1.18l2,3s-.67-5,2.41-8.41C130.15,120.34,131.2,100.36,118.28,105.17Z" style="fill: #795651"/>
            <path d="M129,128.24l-1.36,5.43a1.44,1.44,0,0,1-1.4,1.09h0a1.44,1.44,0,0,1-1.43-1.26l-.7-5.56a2.49,2.49,0,0,1,2.47-2.79h0A2.49,2.49,0,0,1,129,128.24Z" style="fill: #efc087"/>
            <path d="M96.53,103l1.77,1.21c-8,5.93-6.53,16.11-6.53,16.11,2.4,2.4,2.4,8.41,2.4,8.41l2.41-2.4s-.93-6.94,3.6-9.61c4.21-2.48,7.89-1.21,11.64-1.21,10.07,0,12.88-3.79,12.4-8.41-.26-2.39-3.91-7.37-13.22-7.21C107.24,100,100.18,101.11,96.53,103Z" style="fill: #6a4c4c"/>
            <path d="M95.83,114.48a13.2,13.2,0,0,1,2.47-10.25c-8,5.93-6.53,16.11-6.53,16.11,2.4,2.4,2.4,8.41,2.4,8.41l2.41-2.4s-.93-6.94,3.6-9.62c4.21-2.47,7.89-1.2,11.64-1.2a30.8,30.8,0,0,0,4.34-.29C108.41,115.5,103.84,109.62,95.83,114.48Z" style="fill: #5b4247"/>
            <path d="M93.05,128.24l1.35,5.43a1.45,1.45,0,0,0,1.41,1.09h0a1.45,1.45,0,0,0,1.43-1.26l.69-5.56a2.48,2.48,0,0,0-2.46-2.79h0A2.48,2.48,0,0,0,93.05,128.24Z" style="fill: #e6b078"/>
            <path d="M125.42,167.21h-6a2.39,2.39,0,0,0-2.4,2.4h10.81A2.39,2.39,0,0,0,125.42,167.21Z" style="fill: #e4e9f6"/>
          </g>
          <rect x="53.75" y="167.44" width="113" height="37" rx="4.04" style="fill: #fff"/>
          <text transform="translate(77.36 194.22)" style="font-size: 20px;fill: #2e2e2e;font-family: Nunito-Bold, Nunito;font-weight: 700;letter-spacing: -0.0580078125em">V<tspan x="13.12" y="0" style="letter-spacing: 0.0000244140625em">endor</tspan></text>
        </g>
      </g>
    </g>
  </g>
</svg>
