<svg xmlns="http://www.w3.org/2000/svg" width="1004" height="216.5" viewBox="0 0 1004 216.5">
  <title>nile_typo_1</title>
  <g id="Layer_2" data-name="Layer 2">
    <g id="Layer_1-2" data-name="Layer 1">
      <g>
        <g>
          <path d="M89.55,3.26a11.67,11.67,0,0,1,3.11,8.4V96.59a11.88,11.88,0,0,1-3.11,8.56,10.68,10.68,0,0,1-8.1,3.25,11,11,0,0,1-8.78-3.93L22,39.52V96.59A12.24,12.24,0,0,1,19,105.15a10.2,10.2,0,0,1-7.95,3.25,10.43,10.43,0,0,1-8-3.25,12.05,12.05,0,0,1-3-8.56V11.66a11.67,11.67,0,0,1,3.1-8.4A10.69,10.69,0,0,1,11.2,0a10.23,10.23,0,0,1,8.63,3.94L70.55,68.43V11.66a11.84,11.84,0,0,1,3-8.4A10.26,10.26,0,0,1,81.45,0,10.69,10.69,0,0,1,89.55,3.26Z" style="fill: #fff"/>
          <path d="M136,105.22a11.65,11.65,0,0,1-3.18-8.63V11.66A11.47,11.47,0,0,1,136,3.18a13.3,13.3,0,0,1,17.26,0,11.47,11.47,0,0,1,3.18,8.48V96.59A12.22,12.22,0,0,1,136,105.22Z" style="fill: #fff"/>
          <path d="M199.39,104.62c-1.92-1.92-2.87-4.64-2.87-8.18V11.66a11.47,11.47,0,0,1,3.18-8.48,13.29,13.29,0,0,1,17.25,0,11.47,11.47,0,0,1,3.18,8.48V88.27h38.76q11.06,0,11.05,9.69,0,9.53-11.05,9.53H207.57C204,107.49,201.31,106.54,199.39,104.62Z" style="fill: #fff"/>
          <path d="M303.55,104.62c-1.92-1.92-2.87-4.64-2.87-8.18V11.81c0-3.53.95-6.26,2.87-8.18S308.19.76,311.73.76h53.59q11.21,0,11.21,9.08,0,9.24-11.21,9.24H323.69v25H362.3q11.19,0,11.2,9.23t-11.2,9.09H323.69V89.17h41.63q11.21,0,11.21,9.24t-11.21,9.08H311.73C308.19,107.49,305.47,106.54,303.55,104.62Z" style="fill: #fff"/>
        </g>
        <g>
          <path d="M33.24,193.74a2.6,2.6,0,0,1,.63,1.8c0,1.3-.92,2.5-2.74,3.59a23.62,23.62,0,0,1-5.95,2.47,23.84,23.84,0,0,1-6.1.82q-8.83,0-14-5.24T0,182.71a22.73,22.73,0,0,1,2.27-10.36,16.88,16.88,0,0,1,6.37-7A17.59,17.59,0,0,1,18,162.84q7.43,0,11.81,4.85t4.38,13.14a3.35,3.35,0,0,1-.63,2.27,2.57,2.57,0,0,1-2,.7H6.34Q7,197.26,19.08,197.26a15.09,15.09,0,0,0,5.24-.82,34.35,34.35,0,0,0,4.7-2.23A7.3,7.3,0,0,1,31.75,193,1.93,1.93,0,0,1,33.24,193.74ZM10.05,170.9Q7,174,6.49,179.74H28.63c-.11-3.86-1.07-6.82-2.9-8.88a9.69,9.69,0,0,0-7.66-3.09A10.6,10.6,0,0,0,10.05,170.9Z" style="fill: #fff"/>
          <path d="M98.55,177.94v21.19a3.06,3.06,0,0,1-.86,2.31,3.15,3.15,0,0,1-2.27.82,3.28,3.28,0,0,1-2.31-.82,3,3,0,0,1-.9-2.31v-21q0-5.25-1.87-7.59c-1.26-1.57-3.21-2.35-5.87-2.35A9.36,9.36,0,0,0,77,171.37q-2.74,3.21-2.74,8.68v19.08a3,3,0,0,1-.9,2.31,3.26,3.26,0,0,1-2.3.82,3.13,3.13,0,0,1-2.27-.82,3,3,0,0,1-.86-2.31v-21q0-5.25-1.88-7.59t-5.94-2.35a9.37,9.37,0,0,0-7.47,3.21q-2.77,3.21-2.78,8.68v19.08a3.06,3.06,0,0,1-.86,2.31,3.13,3.13,0,0,1-2.27.82,3.24,3.24,0,0,1-2.3-.82,3,3,0,0,1-.9-2.31v-33a3,3,0,0,1,.9-2.27,3.18,3.18,0,0,1,2.3-.86,3,3,0,0,1,2.19.82,2.92,2.92,0,0,1,.86,2.23v3.75a12.42,12.42,0,0,1,4.77-5.16,13.61,13.61,0,0,1,7-1.8q8.92,0,11.66,7.51a12.62,12.62,0,0,1,5-5.47,14.49,14.49,0,0,1,7.67-2Q98.54,162.84,98.55,177.94Z" style="fill: #fff"/>
          <path d="M138.12,165.35a16.51,16.51,0,0,1,5.95,7,24.44,24.44,0,0,1,2.11,10.44,23.89,23.89,0,0,1-2.11,10.36,15.66,15.66,0,0,1-14.79,9.27,15,15,0,0,1-7.78-2,12.46,12.46,0,0,1-5-5.55v18.38a3,3,0,0,1-.82,2.23,3.12,3.12,0,0,1-2.31.82,3.2,3.2,0,0,1-2.35-.86,3,3,0,0,1-.86-2.19V166.13a3.08,3.08,0,0,1,.86-2.27,3.2,3.2,0,0,1,2.35-.86,3.06,3.06,0,0,1,2.31.86,3.18,3.18,0,0,1,.82,2.27v4.22a12.46,12.46,0,0,1,5-5.55,15.11,15.11,0,0,1,7.78-2A15.78,15.78,0,0,1,138.12,165.35Zm-1.48,28.07q3-3.75,3.05-10.63T136.64,172a10.35,10.35,0,0,0-8.61-3.87q-5.55,0-8.56,3.76t-3,10.71q0,7,3,10.76t8.56,3.79A10.47,10.47,0,0,0,136.64,193.42Z" style="fill: #fff"/>
          <path d="M161.94,200a16.13,16.13,0,0,1-6.34-6.92,25.55,25.55,0,0,1,0-20.88,16.13,16.13,0,0,1,6.34-6.92,18.27,18.27,0,0,1,9.5-2.43,18.49,18.49,0,0,1,9.54,2.43,16,16,0,0,1,6.37,6.92,25.55,25.55,0,0,1,0,20.88A16,16,0,0,1,181,200a18.49,18.49,0,0,1-9.54,2.43A18.27,18.27,0,0,1,161.94,200Zm18.14-6.53q3-3.71,3-10.83,0-7-3.05-10.75a11.63,11.63,0,0,0-17.2,0q-3.06,3.8-3.06,10.75t3,10.79q3,3.77,8.64,3.76T180.08,193.46Z" style="fill: #fff"/>
          <path d="M253.25,163.16a3.23,3.23,0,0,1,2.11.78,2.42,2.42,0,0,1,.94,1.95,3.31,3.31,0,0,1-.24,1.18l-13,32.85a3.75,3.75,0,0,1-1.37,1.6,3.57,3.57,0,0,1-2,.59,3.47,3.47,0,0,1-1.92-.59,3.82,3.82,0,0,1-1.37-1.6l-10.79-27.46-10.72,27.46a3.2,3.2,0,0,1-1.33,1.6,3.75,3.75,0,0,1-2,.59,3.81,3.81,0,0,1-3.36-2.19l-13-32.77a3.18,3.18,0,0,1-.24-1.1,2.61,2.61,0,0,1,1.06-2.11,3.58,3.58,0,0,1,2.3-.86A2.71,2.71,0,0,1,201,165l10.72,28.86,11-28.63a3.58,3.58,0,0,1,1.29-1.56,3.05,3.05,0,0,1,1.76-.55,3.21,3.21,0,0,1,3,2.11l11,28.55L250.67,165A2.66,2.66,0,0,1,253.25,163.16Z" style="fill: #fff"/>
          <path d="M294.94,193.74a2.64,2.64,0,0,1,.62,1.8q0,2-2.74,3.59a23.55,23.55,0,0,1-5.94,2.47,23.89,23.89,0,0,1-6.1.82q-8.83,0-14-5.24t-5.12-14.47A22.73,22.73,0,0,1,264,172.35a17,17,0,0,1,6.38-7,17.56,17.56,0,0,1,9.34-2.51q7.44,0,11.81,4.85t4.38,13.14a3.4,3.4,0,0,1-.62,2.27,2.61,2.61,0,0,1-2,.7H268q.71,13.45,12.75,13.46a15.13,15.13,0,0,0,5.24-.82,34.27,34.27,0,0,0,4.69-2.23,7.38,7.38,0,0,1,2.74-1.18A2,2,0,0,1,294.94,193.74ZM271.75,170.9q-3,3.14-3.56,8.84h22.13c-.1-3.86-1.07-6.82-2.89-8.88a9.72,9.72,0,0,0-7.67-3.09A10.57,10.57,0,0,0,271.75,170.9Z" style="fill: #fff"/>
          <path d="M327.31,165.66a2.76,2.76,0,0,1-.7,2,3.7,3.7,0,0,1-2.42.9l-2.35.24c-3.49.31-6.09,1.55-7.78,3.71a12,12,0,0,0-2.54,7.63v19a3,3,0,0,1-.86,2.35,3.68,3.68,0,0,1-4.58,0,3,3,0,0,1-.9-2.31v-33a2.9,2.9,0,0,1,.94-2.31,3.32,3.32,0,0,1,2.27-.82,2.88,2.88,0,0,1,3,3.05v4.38a11.91,11.91,0,0,1,4.65-5.24,15.79,15.79,0,0,1,6.92-2.11L324,163Q327.32,162.76,327.31,165.66Z" style="fill: #fff"/>
          <path d="M333,153.69a3.74,3.74,0,0,1-1.18-2.89A3.66,3.66,0,0,1,333,148a4.81,4.81,0,0,1,6.1,0,3.69,3.69,0,0,1,1.17,2.82,3.77,3.77,0,0,1-1.17,2.89,4.78,4.78,0,0,1-6.1,0Zm.74,47.75a3,3,0,0,1-.9-2.31v-33a3,3,0,0,1,.9-2.31A3.28,3.28,0,0,1,336,163a3.13,3.13,0,0,1,2.26.82,3,3,0,0,1,.86,2.31v33a3,3,0,0,1-.86,2.35,3.23,3.23,0,0,1-2.26.78A3.28,3.28,0,0,1,333.69,201.44Z" style="fill: #fff"/>
          <path d="M383.78,177.94v21.19a2.85,2.85,0,0,1-3.13,3.13,3.23,3.23,0,0,1-2.34-.82,3,3,0,0,1-.86-2.31v-20.8q0-5.33-2.07-7.74t-6.61-2.43a11.14,11.14,0,0,0-8.37,3.21,11.88,11.88,0,0,0-3.13,8.68v19.08a2.85,2.85,0,0,1-3.13,3.13,3.27,3.27,0,0,1-2.35-.82,3.06,3.06,0,0,1-.86-2.31v-33a3.08,3.08,0,0,1,.86-2.27,3.2,3.2,0,0,1,2.35-.86,3,3,0,0,1,2.23.86,3,3,0,0,1,.82,2.19v4a12.84,12.84,0,0,1,5.24-5.36,15.79,15.79,0,0,1,7.67-1.84Q383.78,162.84,383.78,177.94Z" style="fill: #fff"/>
          <path d="M428.6,163.86a3.08,3.08,0,0,1,.86,2.27v33.16q0,8.52-4.38,12.87t-13,4.34q-8.37,0-13.93-3.29-2.81-1.56-2.81-3.6a2.69,2.69,0,0,1,.58-1.79,1.91,1.91,0,0,1,1.53-.71,7.68,7.68,0,0,1,2.82,1.1,35.41,35.41,0,0,0,5.39,2.26,20.49,20.49,0,0,0,6.34.87q5.55,0,8.37-2.94c1.87-2,2.81-4.81,2.81-8.56v-6.73a11.87,11.87,0,0,1-5,5.63,15.76,15.76,0,0,1-8,2,16.74,16.74,0,0,1-8.88-2.35,15.81,15.81,0,0,1-6-6.65,24,24,0,0,1,0-19.86,15.81,15.81,0,0,1,6-6.65,16.83,16.83,0,0,1,8.88-2.35,15.48,15.48,0,0,1,7.9,2,12.43,12.43,0,0,1,5.08,5.55v-4.22a3.18,3.18,0,0,1,.82-2.27,3.06,3.06,0,0,1,2.31-.86A3.2,3.2,0,0,1,428.6,163.86Zm-8.61,28q3.13-3.63,3.13-10t-3.09-10a10.71,10.71,0,0,0-8.64-3.64,10.94,10.94,0,0,0-8.72,3.64q-3.17,3.63-3.17,10t3.17,10a10.94,10.94,0,0,0,8.72,3.64A10.72,10.72,0,0,0,420,191.82Z" style="fill: #fff"/>
          <path d="M462.27,201.44a3,3,0,0,1-.9-2.31V149.47a3,3,0,0,1,.9-2.31,3.28,3.28,0,0,1,2.31-.82,3.16,3.16,0,0,1,2.22.82,3,3,0,0,1,.9,2.31v49.66a3,3,0,0,1-.9,2.31,3.16,3.16,0,0,1-2.22.82A3.28,3.28,0,0,1,462.27,201.44Z" style="fill: #fff"/>
          <path d="M485.81,200a16.13,16.13,0,0,1-6.34-6.92,25.66,25.66,0,0,1,0-20.88,16.13,16.13,0,0,1,6.34-6.92,18.3,18.3,0,0,1,9.5-2.43,18.49,18.49,0,0,1,9.54,2.43,16,16,0,0,1,6.38,6.92,25.55,25.55,0,0,1,0,20.88,16,16,0,0,1-6.38,6.92,18.49,18.49,0,0,1-9.54,2.43A18.3,18.3,0,0,1,485.81,200ZM504,193.46q3-3.71,3-10.83,0-7-3.05-10.75a11.64,11.64,0,0,0-17.21,0q-3,3.8-3,10.75t3,10.79q3,3.77,8.64,3.76T504,193.46Z" style="fill: #fff"/>
          <path d="M529.22,200a16.19,16.19,0,0,1-6.34-6.88,22.85,22.85,0,0,1-2.23-10.32,22.59,22.59,0,0,1,2.31-10.4,17.05,17.05,0,0,1,6.45-7,18.12,18.12,0,0,1,9.54-2.51,22.17,22.17,0,0,1,5.91.82,16.45,16.45,0,0,1,5.12,2.39,7,7,0,0,1,2,1.84,3.56,3.56,0,0,1,.58,2,2.72,2.72,0,0,1-.58,1.8,1.9,1.9,0,0,1-1.53.71,2.61,2.61,0,0,1-1.17-.32,7.63,7.63,0,0,1-1.06-.62,4.71,4.71,0,0,0-.58-.39,25.68,25.68,0,0,0-3.88-2.12,11.47,11.47,0,0,0-4.49-.78,10.83,10.83,0,0,0-8.88,3.87q-3.17,3.87-3.17,10.76t3.17,10.63q3.17,3.77,8.88,3.76a12.1,12.1,0,0,0,4.57-.78,20.65,20.65,0,0,0,3.87-2.12c.58-.36,1.12-.67,1.65-.93a3.09,3.09,0,0,1,1.33-.39,1.8,1.8,0,0,1,1.44.7,2.73,2.73,0,0,1,.59,1.8,3.21,3.21,0,0,1-.55,1.84,7.54,7.54,0,0,1-2,1.83,18.64,18.64,0,0,1-5.28,2.39,22.12,22.12,0,0,1-6.22.9A18.11,18.11,0,0,1,529.22,200Z" style="fill: #fff"/>
          <path d="M590.26,177.86v21.27a3.13,3.13,0,0,1-.82,2.27,2.92,2.92,0,0,1-2.23.86,3,3,0,0,1-3.13-3.13v-3.75a11.17,11.17,0,0,1-4.53,5.2,13.35,13.35,0,0,1-7,1.84,15.41,15.41,0,0,1-6.77-1.49,12.1,12.1,0,0,1-4.89-4.14,10.24,10.24,0,0,1-1.8-5.87,9.54,9.54,0,0,1,2.19-6.69c1.46-1.59,3.86-2.73,7.2-3.44a71.51,71.51,0,0,1,13.92-1h1.72v-2.58q0-4.69-1.91-6.89c-1.28-1.46-3.36-2.19-6.22-2.19a23,23,0,0,0-10.8,2.9,7.15,7.15,0,0,1-3,1.33,2,2,0,0,1-1.56-.71,2.58,2.58,0,0,1-.63-1.8,2.91,2.91,0,0,1,.67-1.91,7.63,7.63,0,0,1,2.15-1.68,24.85,24.85,0,0,1,6.22-2.47,27.51,27.51,0,0,1,6.92-.9Q590.26,162.84,590.26,177.86Zm-9.19,16.39a11.39,11.39,0,0,0,3-8.18V183.8h-1.41a70.14,70.14,0,0,0-10.48.59,10.1,10.1,0,0,0-5.12,2,5.1,5.1,0,0,0-1.52,4,6.49,6.49,0,0,0,2.22,5,8.08,8.08,0,0,0,5.6,2A10.16,10.16,0,0,0,581.07,194.25Z" style="fill: #fff"/>
          <path d="M602.74,201.44a3,3,0,0,1-.9-2.31V149.47a3,3,0,0,1,.9-2.31,3.24,3.24,0,0,1,2.3-.82,3.17,3.17,0,0,1,2.23.82,3,3,0,0,1,.9,2.31v49.66a3,3,0,0,1-.9,2.31,3.17,3.17,0,0,1-2.23.82A3.24,3.24,0,0,1,602.74,201.44Z" style="fill: #fff"/>
          <path d="M671.13,193.74a2.6,2.6,0,0,1,.63,1.8c0,1.3-.92,2.5-2.74,3.59a24.23,24.23,0,0,1-12,3.29q-8.84,0-14-5.24t-5.12-14.47a22.73,22.73,0,0,1,2.27-10.36,17,17,0,0,1,6.37-7,17.62,17.62,0,0,1,9.35-2.51q7.43,0,11.81,4.85t4.38,13.14a3.35,3.35,0,0,1-.63,2.27,2.57,2.57,0,0,1-2,.7H644.23q.71,13.45,12.74,13.46a15.19,15.19,0,0,0,5.25-.82,34.83,34.83,0,0,0,4.69-2.23,7.32,7.32,0,0,1,2.74-1.18A1.93,1.93,0,0,1,671.13,193.74ZM647.94,170.9q-3,3.14-3.56,8.84h22.14c-.11-3.86-1.07-6.82-2.9-8.88a9.69,9.69,0,0,0-7.66-3.09A10.6,10.6,0,0,0,647.94,170.9Z" style="fill: #fff"/>
          <path d="M687.67,200a16.11,16.11,0,0,1-6.33-6.88,24.78,24.78,0,0,1,.08-20.72,16.92,16.92,0,0,1,6.45-7,18.07,18.07,0,0,1,9.54-2.51,22,22,0,0,1,5.9.82,16.4,16.4,0,0,1,5.13,2.39,6.94,6.94,0,0,1,2,1.84,3.57,3.57,0,0,1,.59,2,2.73,2.73,0,0,1-.59,1.8,1.89,1.89,0,0,1-1.52.71,2.65,2.65,0,0,1-1.18-.32,7.48,7.48,0,0,1-1.05-.62,4.57,4.57,0,0,0-.59-.39,25.61,25.61,0,0,0-3.87-2.12,11.55,11.55,0,0,0-4.5-.78,10.82,10.82,0,0,0-8.87,3.87q-3.18,3.87-3.17,10.76t3.17,10.63q3.17,3.77,8.87,3.76a12.16,12.16,0,0,0,4.58-.78,21,21,0,0,0,3.87-2.12c.57-.36,1.12-.67,1.64-.93a3.12,3.12,0,0,1,1.33-.39,1.8,1.8,0,0,1,1.45.7,2.73,2.73,0,0,1,.59,1.8,3.29,3.29,0,0,1-.55,1.84,7.78,7.78,0,0,1-2,1.83,18.64,18.64,0,0,1-5.28,2.39,22.11,22.11,0,0,1-6.21.9A18.17,18.17,0,0,1,687.67,200Z" style="fill: #fff"/>
          <path d="M725.14,200a16.13,16.13,0,0,1-6.34-6.92,25.55,25.55,0,0,1,0-20.88,16.13,16.13,0,0,1,6.34-6.92,18.27,18.27,0,0,1,9.5-2.43,18.49,18.49,0,0,1,9.54,2.43,16,16,0,0,1,6.37,6.92,25.55,25.55,0,0,1,0,20.88,16,16,0,0,1-6.37,6.92,18.49,18.49,0,0,1-9.54,2.43A18.27,18.27,0,0,1,725.14,200Zm18.14-6.53q3-3.71,3-10.83,0-7-3-10.75a11.64,11.64,0,0,0-17.21,0q-3,3.8-3,10.75t3,10.79q3,3.77,8.64,3.76T743.28,193.46Z" style="fill: #fff"/>
          <path d="M795.1,177.94v21.19a3.13,3.13,0,0,1-.83,2.31,3.08,3.08,0,0,1-2.3.82,3.25,3.25,0,0,1-2.35-.82,3.06,3.06,0,0,1-.86-2.31v-20.8q0-5.33-2.07-7.74c-1.38-1.62-3.59-2.43-6.61-2.43a11.17,11.17,0,0,0-8.37,3.21,11.88,11.88,0,0,0-3.13,8.68v19.08a2.85,2.85,0,0,1-3.13,3.13,3.23,3.23,0,0,1-2.34-.82,3,3,0,0,1-.86-2.31v-33a3,3,0,0,1,.86-2.27,3.16,3.16,0,0,1,2.34-.86,3,3,0,0,1,2.23.86,3,3,0,0,1,.82,2.19v4a12.84,12.84,0,0,1,5.24-5.36,15.79,15.79,0,0,1,7.67-1.84Q795.09,162.84,795.1,177.94Z" style="fill: #fff"/>
          <path d="M813,200a16.13,16.13,0,0,1-6.34-6.92,25.55,25.55,0,0,1,0-20.88,16.13,16.13,0,0,1,6.34-6.92,18.27,18.27,0,0,1,9.5-2.43,18.49,18.49,0,0,1,9.54,2.43,16.09,16.09,0,0,1,6.38,6.92,25.66,25.66,0,0,1,0,20.88A16.09,16.09,0,0,1,832,200a18.49,18.49,0,0,1-9.54,2.43A18.27,18.27,0,0,1,813,200Zm18.14-6.53q3-3.71,3-10.83,0-7-3-10.75a11.63,11.63,0,0,0-17.2,0q-3.06,3.8-3,10.75t3,10.79c2,2.51,4.89,3.76,8.64,3.76S829.1,195.94,831.11,193.46Z" style="fill: #fff"/>
          <path d="M905.14,177.94v21.19a3.06,3.06,0,0,1-.86,2.31,3.15,3.15,0,0,1-2.27.82,3.28,3.28,0,0,1-2.31-.82,3,3,0,0,1-.9-2.31v-21q0-5.25-1.87-7.59t-5.87-2.35a9.36,9.36,0,0,0-7.51,3.21q-2.73,3.21-2.73,8.68v19.08a3,3,0,0,1-.9,2.31,3.28,3.28,0,0,1-2.31.82,3.13,3.13,0,0,1-2.27-.82,3.06,3.06,0,0,1-.86-2.31v-21q0-5.25-1.88-7.59t-5.94-2.35a9.37,9.37,0,0,0-7.47,3.21q-2.78,3.21-2.78,8.68v19.08a3,3,0,0,1-.86,2.31,3.13,3.13,0,0,1-2.27.82,3.27,3.27,0,0,1-2.3-.82,3,3,0,0,1-.9-2.31v-33a3,3,0,0,1,.9-2.27,3.21,3.21,0,0,1,2.3-.86,3,3,0,0,1,2.19.82,2.92,2.92,0,0,1,.86,2.23v3.75a12.38,12.38,0,0,1,4.78-5.16,13.57,13.57,0,0,1,7-1.8q8.93,0,11.66,7.51a12.62,12.62,0,0,1,5-5.47,14.52,14.52,0,0,1,7.67-2Q905.15,162.84,905.14,177.94Z" style="fill: #fff"/>
          <path d="M916.87,153.69a3.77,3.77,0,0,1-1.17-2.89,3.69,3.69,0,0,1,1.17-2.82,4.81,4.81,0,0,1,6.1,0,3.69,3.69,0,0,1,1.17,2.82,3.77,3.77,0,0,1-1.17,2.89,4.78,4.78,0,0,1-6.1,0Zm.74,47.75a3,3,0,0,1-.9-2.31v-33a3,3,0,0,1,.9-2.31,3.28,3.28,0,0,1,2.31-.82,3.15,3.15,0,0,1,2.27.82,3.06,3.06,0,0,1,.86,2.31v33a3,3,0,0,1-.86,2.35,3.68,3.68,0,0,1-4.58,0Z" style="fill: #fff"/>
          <path d="M965.83,193.74a2.6,2.6,0,0,1,.63,1.8c0,1.3-.92,2.5-2.74,3.59a24.31,24.31,0,0,1-12.05,3.29q-8.83,0-14-5.24t-5.12-14.47a22.73,22.73,0,0,1,2.27-10.36,17,17,0,0,1,6.37-7,17.62,17.62,0,0,1,9.35-2.51q7.42,0,11.81,4.85t4.38,13.14a3.35,3.35,0,0,1-.63,2.27,2.57,2.57,0,0,1-2,.7H938.93q.71,13.45,12.74,13.46a15.09,15.09,0,0,0,5.24-.82,34.35,34.35,0,0,0,4.7-2.23,7.36,7.36,0,0,1,2.73-1.18A1.93,1.93,0,0,1,965.83,193.74ZM942.64,170.9q-3,3.14-3.56,8.84h22.14c-.11-3.86-1.07-6.82-2.9-8.88a9.69,9.69,0,0,0-7.66-3.09A10.6,10.6,0,0,0,942.64,170.9Z" style="fill: #fff"/>
          <path d="M982.06,201.56a20.5,20.5,0,0,1-5.75-2.43,7.48,7.48,0,0,1-2-1.76,3.33,3.33,0,0,1-.59-2,2.44,2.44,0,0,1,.59-1.68,2,2,0,0,1,1.52-.67,5.77,5.77,0,0,1,2.74,1.18,25.89,25.89,0,0,0,4.65,2.23,17.55,17.55,0,0,0,5.75.82,12.24,12.24,0,0,0,6.57-1.49,4.77,4.77,0,0,0,2.35-4.3,4.29,4.29,0,0,0-.86-2.78,7.16,7.16,0,0,0-3-1.87,42.69,42.69,0,0,0-6.18-1.69q-6.89-1.49-9.86-4a8.44,8.44,0,0,1-3-6.81,9.85,9.85,0,0,1,1.88-5.94,12.6,12.6,0,0,1,5.2-4.07,18.28,18.28,0,0,1,7.54-1.49,21.52,21.52,0,0,1,5.91.82,17.66,17.66,0,0,1,5,2.31c1.78,1.25,2.66,2.56,2.66,3.91a2.52,2.52,0,0,1-.62,1.72,1.93,1.93,0,0,1-1.49.71,5.92,5.92,0,0,1-2.81-1.33,24.71,24.71,0,0,0-4.15-2.19,13.14,13.14,0,0,0-4.85-.78,9.66,9.66,0,0,0-5.9,1.64,5.15,5.15,0,0,0-2.23,4.38,4.35,4.35,0,0,0,.82,2.77,6.77,6.77,0,0,0,2.74,1.88,31.34,31.34,0,0,0,5.51,1.6,39.51,39.51,0,0,1,8.25,2.59,9.53,9.53,0,0,1,4.19,3.44,9.71,9.71,0,0,1,1.25,5.16,9.36,9.36,0,0,1-4.15,7.94q-4.14,3-11,3A26.71,26.71,0,0,1,982.06,201.56Z" style="fill: #fff"/>
        </g>
      </g>
    </g>
  </g>
</svg>
